<!-- <svg viewBox="0 0 24 24" fill="none" xmlns="http://www.w3.org/2000/svg" transform="matrix(-1, 0, 0, 1, 0, 0)"><g id="SVGRepo_bgCarrier" stroke-width="0"></g><g id="SVGRepo_tracerCarrier" stroke-linecap="round" stroke-linejoin="round"></g><g id="SVGRepo_iconCarrier"> <path d="M6 11C6 8.17157 6 6.75736 6.87868 5.87868C7.75736 5 9.17157 5 12 5H15C17.8284 5 19.2426 5 20.1213 5.87868C21 6.75736 21 8.17157 21 11V16C21 18.8284 21 20.2426 20.1213 21.1213C19.2426 22 17.8284 22 15 22H12C9.17157 22 7.75736 22 6.87868 21.1213C6 20.2426 6 18.8284 6 16V11Z" stroke="#ffffff" stroke-width="1.5"></path> <path d="M6 19C4.34315 19 3 17.6569 3 16V10C3 6.22876 3 4.34315 4.17157 3.17157C5.34315 2 7.22876 2 11 2H15C16.6569 2 18 3.34315 18 5" stroke="#ffffff" stroke-width="1.5"></path> </g></svg> -->

<svg viewBox="-2.4 -2.4 28.80 28.80" id="meteor-icon-kit__solid-copy" fill="none" xmlns="http://www.w3.org/2000/svg" transform="matrix(-1, 0, 0, 1, 0, 0)"><g id="SVGRepo_bgCarrier" stroke-width="0"></g><g id="SVGRepo_tracerCarrier" stroke-linecap="round" stroke-linejoin="round"></g><g id="SVGRepo_iconCarrier"><path fill-rule="evenodd" clip-rule="evenodd" d="M10 7H21C22.6569 7 24 8.34315 24 10V21C24 22.6569 22.6569 24 21 24H10C8.34315 24 7 22.6569 7 21V10C7 8.34315 8.34315 7 10 7ZM17 5H10C7.23858 5 5 7.23858 5 10V17H3C1.34315 17 0 15.6569 0 14V3C0 1.34315 1.34315 0 3 0H14C15.6569 0 17 1.34315 17 3V5Z" fill="#ffffff"></path></g></svg>