<?xml version="1.0" encoding="UTF-8"?>
<!DOCTYPE svg PUBLIC "-//W3C//DTD SVG 1.1//EN" "http://www.w3.org/Graphics/SVG/1.1/DTD/svg11.dtd">
<svg xmlns="http://www.w3.org/2000/svg" version="1.1" width="902px" height="632px" style="shape-rendering:geometricPrecision; text-rendering:geometricPrecision; image-rendering:optimizeQuality; fill-rule:evenodd; clip-rule:evenodd" xmlns:xlink="http://www.w3.org/1999/xlink">
<g><path style="opacity:1" fill="#3b3b6d" d="M -0.5,-0.5 C 159.5,-0.5 319.5,-0.5 479.5,-0.5C 479.5,15.5 479.5,31.5 479.5,47.5C 479.5,48.1667 479.5,48.8333 479.5,49.5C 479.5,65.1667 479.5,80.8333 479.5,96.5C 479.5,97.1667 479.5,97.8333 479.5,98.5C 479.5,99.1667 479.5,99.8333 479.5,100.5C 479.5,115.5 479.5,130.5 479.5,145.5C 479.5,161.5 479.5,177.5 479.5,193.5C 479.5,194.167 479.5,194.833 479.5,195.5C 479.5,211.167 479.5,226.833 479.5,242.5C 479.5,258.833 479.5,275.167 479.5,291.5C 479.5,306.5 479.5,321.5 479.5,336.5C 319.5,336.5 159.5,336.5 -0.5,336.5C -0.5,224.167 -0.5,111.833 -0.5,-0.5 Z"/></g>
<g><path style="opacity:1" fill="#b22133" d="M 479.5,-0.5 C 620.167,-0.5 760.833,-0.5 901.5,-0.5C 901.5,15.5 901.5,31.5 901.5,47.5C 760.833,47.5 620.167,47.5 479.5,47.5C 479.5,31.5 479.5,15.5 479.5,-0.5 Z"/></g>
<g><path style="opacity:1" fill="#f6f6f8" d="M 38.5,15.5 C 39.4972,15.4701 40.1639,15.9701 40.5,17C 41.5785,20.1489 42.5785,23.3155 43.5,26.5C 48.1315,27.3283 52.7982,27.8283 57.5,28C 53.4333,30.3608 49.7667,33.1941 46.5,36.5C 48.6053,40.3065 49.7719,44.3065 50,48.5C 46.758,45.7945 43.258,43.4612 39.5,41.5C 36.1667,43.8333 32.8333,46.1667 29.5,48.5C 29.2005,44.3563 30.2005,40.3563 32.5,36.5C 29.2333,33.1941 25.5667,30.3608 21.5,28C 26.2018,27.8283 30.8685,27.3283 35.5,26.5C 36.7081,22.8777 37.7081,19.211 38.5,15.5 Z"/></g>
<g><path style="opacity:1" fill="#f6f6f8" d="M 118.5,15.5 C 119.497,15.4701 120.164,15.9701 120.5,17C 121.578,20.1489 122.578,23.3155 123.5,26.5C 128.132,27.3283 132.798,27.8283 137.5,28C 133.433,30.3608 129.767,33.1941 126.5,36.5C 128.605,40.3065 129.772,44.3065 130,48.5C 126.758,45.7945 123.258,43.4612 119.5,41.5C 116.167,43.8333 112.833,46.1667 109.5,48.5C 109.2,44.3563 110.2,40.3563 112.5,36.5C 109.233,33.1941 105.567,30.3608 101.5,28C 106.202,27.8283 110.868,27.3283 115.5,26.5C 116.708,22.8777 117.708,19.211 118.5,15.5 Z"/></g>
<g><path style="opacity:1" fill="#f6f6f8" d="M 198.5,15.5 C 199.497,15.4701 200.164,15.9701 200.5,17C 201.578,20.1489 202.578,23.3155 203.5,26.5C 208.132,27.3283 212.798,27.8283 217.5,28C 213.433,30.3608 209.767,33.1941 206.5,36.5C 208.605,40.3065 209.772,44.3065 210,48.5C 206.758,45.7945 203.258,43.4612 199.5,41.5C 196.167,43.8333 192.833,46.1667 189.5,48.5C 189.2,44.3563 190.2,40.3563 192.5,36.5C 189.233,33.1941 185.567,30.3608 181.5,28C 186.202,27.8283 190.868,27.3283 195.5,26.5C 196.708,22.8777 197.708,19.211 198.5,15.5 Z"/></g>
<g><path style="opacity:1" fill="#f6f6f8" d="M 278.5,15.5 C 279.497,15.4701 280.164,15.9701 280.5,17C 281.578,20.1489 282.578,23.3155 283.5,26.5C 288.132,27.3283 292.798,27.8283 297.5,28C 293.433,30.3608 289.767,33.1941 286.5,36.5C 288.605,40.3065 289.772,44.3065 290,48.5C 286.758,45.7945 283.258,43.4612 279.5,41.5C 276.167,43.8333 272.833,46.1667 269.5,48.5C 269.2,44.3563 270.2,40.3563 272.5,36.5C 269.233,33.1941 265.567,30.3608 261.5,28C 266.202,27.8283 270.868,27.3283 275.5,26.5C 276.708,22.8777 277.708,19.211 278.5,15.5 Z"/></g>
<g><path style="opacity:1" fill="#f6f6f8" d="M 358.5,15.5 C 359.497,15.4701 360.164,15.9701 360.5,17C 361.578,20.1489 362.578,23.3155 363.5,26.5C 368.132,27.3283 372.798,27.8283 377.5,28C 373.433,30.3608 369.767,33.1941 366.5,36.5C 368.605,40.3065 369.772,44.3065 370,48.5C 366.758,45.7945 363.258,43.4612 359.5,41.5C 356.167,43.8333 352.833,46.1667 349.5,48.5C 349.2,44.3563 350.2,40.3563 352.5,36.5C 349.233,33.1941 345.567,30.3608 341.5,28C 346.202,27.8283 350.868,27.3283 355.5,26.5C 356.708,22.8777 357.708,19.211 358.5,15.5 Z"/></g>
<g><path style="opacity:1" fill="#f6f6f8" d="M 438.5,15.5 C 439.497,15.4701 440.164,15.9701 440.5,17C 441.578,20.1489 442.578,23.3155 443.5,26.5C 448.132,27.3283 452.798,27.8283 457.5,28C 453.433,30.3608 449.767,33.1941 446.5,36.5C 448.605,40.3065 449.772,44.3065 450,48.5C 446.758,45.7945 443.258,43.4612 439.5,41.5C 436.167,43.8333 432.833,46.1667 429.5,48.5C 429.2,44.3563 430.2,40.3563 432.5,36.5C 429.233,33.1941 425.567,30.3608 421.5,28C 426.202,27.8283 430.868,27.3283 435.5,26.5C 436.708,22.8777 437.708,19.211 438.5,15.5 Z"/></g>
<g><path style="opacity:1" fill="#e7cdd4" d="M 479.5,47.5 C 620.167,47.5 760.833,47.5 901.5,47.5C 901.5,48.1667 901.5,48.8333 901.5,49.5C 760.833,49.5 620.167,49.5 479.5,49.5C 479.5,48.8333 479.5,48.1667 479.5,47.5 Z"/></g>
<g><path style="opacity:1" fill="#fefefe" d="M 479.5,49.5 C 620.167,49.5 760.833,49.5 901.5,49.5C 901.5,65.1667 901.5,80.8333 901.5,96.5C 760.833,96.5 620.167,96.5 479.5,96.5C 479.5,80.8333 479.5,65.1667 479.5,49.5 Z"/></g>
<g><path style="opacity:1" fill="#f5f6f8" d="M 78.5,49.5 C 79.4972,49.4701 80.1639,49.9701 80.5,51C 81.5785,54.1489 82.5785,57.3155 83.5,60.5C 88.1315,61.3283 92.7982,61.8283 97.5,62C 93.4333,64.3608 89.7667,67.1941 86.5,70.5C 88.6053,74.3065 89.7719,78.3065 90,82.5C 86.414,80.2907 82.914,77.9574 79.5,75.5C 76.1667,77.8333 72.8333,80.1667 69.5,82.5C 69.2005,78.3563 70.2005,74.3563 72.5,70.5C 69.2333,67.1941 65.5667,64.3608 61.5,62C 66.1548,61.5008 70.8215,61.3342 75.5,61.5C 76.5,57.5 77.5,53.5 78.5,49.5 Z"/></g>
<g><path style="opacity:1" fill="#f5f6f8" d="M 158.5,49.5 C 159.497,49.4701 160.164,49.9701 160.5,51C 161.578,54.1489 162.578,57.3155 163.5,60.5C 168.132,61.3283 172.798,61.8283 177.5,62C 173.433,64.3608 169.767,67.1941 166.5,70.5C 168.605,74.3065 169.772,78.3065 170,82.5C 166.414,80.2907 162.914,77.9574 159.5,75.5C 156.167,77.8333 152.833,80.1667 149.5,82.5C 149.2,78.3563 150.2,74.3563 152.5,70.5C 149.233,67.1941 145.567,64.3608 141.5,62C 146.155,61.5008 150.821,61.3342 155.5,61.5C 156.5,57.5 157.5,53.5 158.5,49.5 Z"/></g>
<g><path style="opacity:1" fill="#f5f6f8" d="M 238.5,49.5 C 239.497,49.4701 240.164,49.9701 240.5,51C 241.578,54.1489 242.578,57.3155 243.5,60.5C 248.132,61.3283 252.798,61.8283 257.5,62C 253.433,64.3608 249.767,67.1941 246.5,70.5C 248.605,74.3065 249.772,78.3065 250,82.5C 246.414,80.2907 242.914,77.9574 239.5,75.5C 236.167,77.8333 232.833,80.1667 229.5,82.5C 229.2,78.3563 230.2,74.3563 232.5,70.5C 229.233,67.1941 225.567,64.3608 221.5,62C 226.155,61.5008 230.821,61.3342 235.5,61.5C 236.5,57.5 237.5,53.5 238.5,49.5 Z"/></g>
<g><path style="opacity:1" fill="#f5f6f8" d="M 318.5,49.5 C 319.497,49.4701 320.164,49.9701 320.5,51C 321.578,54.1489 322.578,57.3155 323.5,60.5C 328.132,61.3283 332.798,61.8283 337.5,62C 333.433,64.3608 329.767,67.1941 326.5,70.5C 328.605,74.3065 329.772,78.3065 330,82.5C 326.414,80.2907 322.914,77.9574 319.5,75.5C 316.167,77.8333 312.833,80.1667 309.5,82.5C 309.2,78.3563 310.2,74.3563 312.5,70.5C 309.233,67.1941 305.567,64.3608 301.5,62C 306.155,61.5008 310.821,61.3342 315.5,61.5C 316.5,57.5 317.5,53.5 318.5,49.5 Z"/></g>
<g><path style="opacity:1" fill="#f5f6f8" d="M 398.5,49.5 C 399.497,49.4701 400.164,49.9701 400.5,51C 401.578,54.1489 402.578,57.3155 403.5,60.5C 408.132,61.3283 412.798,61.8283 417.5,62C 413.433,64.3608 409.767,67.1941 406.5,70.5C 408.605,74.3065 409.772,78.3065 410,82.5C 406.414,80.2907 402.914,77.9574 399.5,75.5C 396.167,77.8333 392.833,80.1667 389.5,82.5C 389.2,78.3563 390.2,74.3563 392.5,70.5C 389.233,67.1941 385.567,64.3608 381.5,62C 386.155,61.5008 390.821,61.3342 395.5,61.5C 396.5,57.5 397.5,53.5 398.5,49.5 Z"/></g>
<g><path style="opacity:1" fill="#f6f6f8" d="M 38.5,83.5 C 41.2923,86.8354 42.959,90.8354 43.5,95.5C 48.1785,95.3342 52.8452,95.5008 57.5,96C 53.4333,98.3608 49.7667,101.194 46.5,104.5C 48.6053,108.307 49.7719,112.307 50,116.5C 46.414,114.291 42.914,111.957 39.5,109.5C 36.3603,111.473 33.3603,113.64 30.5,116C 29.6683,116.688 29.0016,116.521 28.5,115.5C 29.4363,111.691 30.7696,108.025 32.5,104.5C 29.2333,101.194 25.5667,98.3608 21.5,96C 26.1548,95.5008 30.8215,95.3342 35.5,95.5C 36.5,91.5 37.5,87.5 38.5,83.5 Z"/></g>
<g><path style="opacity:1" fill="#f6f6f8" d="M 118.5,83.5 C 121.292,86.8354 122.959,90.8354 123.5,95.5C 128.179,95.3342 132.845,95.5008 137.5,96C 133.433,98.3608 129.767,101.194 126.5,104.5C 128.605,108.307 129.772,112.307 130,116.5C 126.414,114.291 122.914,111.957 119.5,109.5C 116.36,111.473 113.36,113.64 110.5,116C 109.668,116.688 109.002,116.521 108.5,115.5C 109.436,111.691 110.77,108.025 112.5,104.5C 109.233,101.194 105.567,98.3608 101.5,96C 106.155,95.5008 110.821,95.3342 115.5,95.5C 116.5,91.5 117.5,87.5 118.5,83.5 Z"/></g>
<g><path style="opacity:1" fill="#f6f6f8" d="M 198.5,83.5 C 201.292,86.8354 202.959,90.8354 203.5,95.5C 208.179,95.3342 212.845,95.5008 217.5,96C 213.433,98.3608 209.767,101.194 206.5,104.5C 208.605,108.307 209.772,112.307 210,116.5C 206.414,114.291 202.914,111.957 199.5,109.5C 196.36,111.473 193.36,113.64 190.5,116C 189.668,116.688 189.002,116.521 188.5,115.5C 189.436,111.691 190.77,108.025 192.5,104.5C 189.233,101.194 185.567,98.3608 181.5,96C 186.155,95.5008 190.821,95.3342 195.5,95.5C 196.5,91.5 197.5,87.5 198.5,83.5 Z"/></g>
<g><path style="opacity:1" fill="#f6f6f8" d="M 278.5,83.5 C 281.292,86.8354 282.959,90.8354 283.5,95.5C 288.179,95.3342 292.845,95.5008 297.5,96C 293.433,98.3608 289.767,101.194 286.5,104.5C 288.605,108.307 289.772,112.307 290,116.5C 286.414,114.291 282.914,111.957 279.5,109.5C 276.36,111.473 273.36,113.64 270.5,116C 269.668,116.688 269.002,116.521 268.5,115.5C 269.436,111.691 270.77,108.025 272.5,104.5C 269.233,101.194 265.567,98.3608 261.5,96C 266.155,95.5008 270.821,95.3342 275.5,95.5C 276.5,91.5 277.5,87.5 278.5,83.5 Z"/></g>
<g><path style="opacity:1" fill="#f6f6f8" d="M 358.5,83.5 C 361.292,86.8354 362.959,90.8354 363.5,95.5C 368.179,95.3342 372.845,95.5008 377.5,96C 373.433,98.3608 369.767,101.194 366.5,104.5C 368.605,108.307 369.772,112.307 370,116.5C 366.414,114.291 362.914,111.957 359.5,109.5C 356.36,111.473 353.36,113.64 350.5,116C 349.668,116.688 349.002,116.521 348.5,115.5C 349.436,111.691 350.77,108.025 352.5,104.5C 349.233,101.194 345.567,98.3608 341.5,96C 346.155,95.5008 350.821,95.3342 355.5,95.5C 356.5,91.5 357.5,87.5 358.5,83.5 Z"/></g>
<g><path style="opacity:1" fill="#f6f6f8" d="M 438.5,83.5 C 441.292,86.8354 442.959,90.8354 443.5,95.5C 448.179,95.3342 452.845,95.5008 457.5,96C 453.433,98.3608 449.767,101.194 446.5,104.5C 448.605,108.307 449.772,112.307 450,116.5C 446.414,114.291 442.914,111.957 439.5,109.5C 436.36,111.473 433.36,113.64 430.5,116C 429.668,116.688 429.002,116.521 428.5,115.5C 429.436,111.691 430.77,108.025 432.5,104.5C 429.233,101.194 425.567,98.3608 421.5,96C 426.155,95.5008 430.821,95.3342 435.5,95.5C 436.5,91.5 437.5,87.5 438.5,83.5 Z"/></g>
<g><path style="opacity:1" fill="#ac3c48" d="M 479.5,96.5 C 620.167,96.5 760.833,96.5 901.5,96.5C 901.5,97.1667 901.5,97.8333 901.5,98.5C 760.833,98.5 620.167,98.5 479.5,98.5C 479.5,97.8333 479.5,97.1667 479.5,96.5 Z"/></g>
<g><path style="opacity:1" fill="#b71f31" d="M 479.5,98.5 C 620.167,98.5 760.833,98.5 901.5,98.5C 901.5,99.1667 901.5,99.8333 901.5,100.5C 760.833,100.5 620.167,100.5 479.5,100.5C 479.5,99.8333 479.5,99.1667 479.5,98.5 Z"/></g>
<g><path style="opacity:1" fill="#b22234" d="M 479.5,100.5 C 620.167,100.5 760.833,100.5 901.5,100.5C 901.5,115.5 901.5,130.5 901.5,145.5C 760.833,145.5 620.167,145.5 479.5,145.5C 479.5,130.5 479.5,115.5 479.5,100.5 Z"/></g>
<g><path style="opacity:1" fill="#f4f5f8" d="M 78.5,117.5 C 81.2923,120.835 82.959,124.835 83.5,129.5C 88.1785,129.334 92.8452,129.501 97.5,130C 93.4333,132.361 89.7667,135.194 86.5,138.5C 88.8073,142.393 89.8073,146.393 89.5,150.5C 86.1667,148.167 82.8333,145.833 79.5,143.5C 76.3603,145.473 73.3603,147.64 70.5,150C 69.5165,150.591 68.8499,150.257 68.5,149C 69.6415,145.24 70.9749,141.573 72.5,138C 69.0105,135.089 65.3438,132.422 61.5,130C 66.1548,129.501 70.8215,129.334 75.5,129.5C 76.5,125.5 77.5,121.5 78.5,117.5 Z"/></g>
<g><path style="opacity:1" fill="#f4f5f8" d="M 158.5,117.5 C 161.292,120.835 162.959,124.835 163.5,129.5C 168.179,129.334 172.845,129.501 177.5,130C 173.433,132.361 169.767,135.194 166.5,138.5C 168.807,142.393 169.807,146.393 169.5,150.5C 166.167,148.167 162.833,145.833 159.5,143.5C 156.36,145.473 153.36,147.64 150.5,150C 149.517,150.591 148.85,150.257 148.5,149C 149.642,145.24 150.975,141.573 152.5,138C 149.01,135.089 145.344,132.422 141.5,130C 146.155,129.501 150.821,129.334 155.5,129.5C 156.5,125.5 157.5,121.5 158.5,117.5 Z"/></g>
<g><path style="opacity:1" fill="#f4f5f8" d="M 238.5,117.5 C 241.292,120.835 242.959,124.835 243.5,129.5C 248.179,129.334 252.845,129.501 257.5,130C 253.433,132.361 249.767,135.194 246.5,138.5C 248.807,142.393 249.807,146.393 249.5,150.5C 246.167,148.167 242.833,145.833 239.5,143.5C 236.36,145.473 233.36,147.64 230.5,150C 229.517,150.591 228.85,150.257 228.5,149C 229.642,145.24 230.975,141.573 232.5,138C 229.01,135.089 225.344,132.422 221.5,130C 226.155,129.501 230.821,129.334 235.5,129.5C 236.5,125.5 237.5,121.5 238.5,117.5 Z"/></g>
<g><path style="opacity:1" fill="#f4f5f8" d="M 318.5,117.5 C 321.292,120.835 322.959,124.835 323.5,129.5C 328.179,129.334 332.845,129.501 337.5,130C 333.433,132.361 329.767,135.194 326.5,138.5C 328.807,142.393 329.807,146.393 329.5,150.5C 326.167,148.167 322.833,145.833 319.5,143.5C 316.36,145.473 313.36,147.64 310.5,150C 309.517,150.591 308.85,150.257 308.5,149C 309.642,145.24 310.975,141.573 312.5,138C 309.01,135.089 305.344,132.422 301.5,130C 306.155,129.501 310.821,129.334 315.5,129.5C 316.5,125.5 317.5,121.5 318.5,117.5 Z"/></g>
<g><path style="opacity:1" fill="#f4f5f8" d="M 398.5,117.5 C 401.292,120.835 402.959,124.835 403.5,129.5C 408.179,129.334 412.845,129.501 417.5,130C 413.433,132.361 409.767,135.194 406.5,138.5C 408.807,142.393 409.807,146.393 409.5,150.5C 406.167,148.167 402.833,145.833 399.5,143.5C 396.36,145.473 393.36,147.64 390.5,150C 389.517,150.591 388.85,150.257 388.5,149C 389.642,145.24 390.975,141.573 392.5,138C 389.01,135.089 385.344,132.422 381.5,130C 386.155,129.501 390.821,129.334 395.5,129.5C 396.5,125.5 397.5,121.5 398.5,117.5 Z"/></g>
<g><path style="opacity:1" fill="#fefefe" d="M 479.5,145.5 C 620.167,145.5 760.833,145.5 901.5,145.5C 901.5,161.5 901.5,177.5 901.5,193.5C 760.833,193.5 620.167,193.5 479.5,193.5C 479.5,177.5 479.5,161.5 479.5,145.5 Z"/></g>
<g><path style="opacity:1" fill="#f5f5f8" d="M 38.5,151.5 C 41.2923,154.835 42.959,158.835 43.5,163.5C 48.1785,163.334 52.8452,163.501 57.5,164C 53.7946,166.845 50.1279,169.678 46.5,172.5C 48.6053,176.307 49.7719,180.307 50,184.5C 46.414,182.291 42.914,179.957 39.5,177.5C 36.1667,179.833 32.8333,182.167 29.5,184.5C 29.2005,180.356 30.2005,176.356 32.5,172.5C 29.2333,169.194 25.5667,166.361 21.5,164C 26.1548,163.501 30.8215,163.334 35.5,163.5C 36.5,159.5 37.5,155.5 38.5,151.5 Z"/></g>
<g><path style="opacity:1" fill="#f5f5f8" d="M 118.5,151.5 C 121.292,154.835 122.959,158.835 123.5,163.5C 128.179,163.334 132.845,163.501 137.5,164C 133.795,166.845 130.128,169.678 126.5,172.5C 128.605,176.307 129.772,180.307 130,184.5C 126.414,182.291 122.914,179.957 119.5,177.5C 116.167,179.833 112.833,182.167 109.5,184.5C 109.2,180.356 110.2,176.356 112.5,172.5C 109.233,169.194 105.567,166.361 101.5,164C 106.155,163.501 110.821,163.334 115.5,163.5C 116.5,159.5 117.5,155.5 118.5,151.5 Z"/></g>
<g><path style="opacity:1" fill="#f5f5f8" d="M 198.5,151.5 C 201.292,154.835 202.959,158.835 203.5,163.5C 208.179,163.334 212.845,163.501 217.5,164C 213.795,166.845 210.128,169.678 206.5,172.5C 208.605,176.307 209.772,180.307 210,184.5C 206.414,182.291 202.914,179.957 199.5,177.5C 196.167,179.833 192.833,182.167 189.5,184.5C 189.2,180.356 190.2,176.356 192.5,172.5C 189.233,169.194 185.567,166.361 181.5,164C 186.155,163.501 190.821,163.334 195.5,163.5C 196.5,159.5 197.5,155.5 198.5,151.5 Z"/></g>
<g><path style="opacity:1" fill="#f5f5f8" d="M 278.5,151.5 C 281.292,154.835 282.959,158.835 283.5,163.5C 288.179,163.334 292.845,163.501 297.5,164C 293.795,166.845 290.128,169.678 286.5,172.5C 288.605,176.307 289.772,180.307 290,184.5C 286.414,182.291 282.914,179.957 279.5,177.5C 276.167,179.833 272.833,182.167 269.5,184.5C 269.2,180.356 270.2,176.356 272.5,172.5C 269.233,169.194 265.567,166.361 261.5,164C 266.155,163.501 270.821,163.334 275.5,163.5C 276.5,159.5 277.5,155.5 278.5,151.5 Z"/></g>
<g><path style="opacity:1" fill="#f5f5f8" d="M 358.5,151.5 C 361.292,154.835 362.959,158.835 363.5,163.5C 368.179,163.334 372.845,163.501 377.5,164C 373.795,166.845 370.128,169.678 366.5,172.5C 368.605,176.307 369.772,180.307 370,184.5C 366.414,182.291 362.914,179.957 359.5,177.5C 356.167,179.833 352.833,182.167 349.5,184.5C 349.2,180.356 350.2,176.356 352.5,172.5C 349.233,169.194 345.567,166.361 341.5,164C 346.155,163.501 350.821,163.334 355.5,163.5C 356.5,159.5 357.5,155.5 358.5,151.5 Z"/></g>
<g><path style="opacity:1" fill="#f5f5f8" d="M 438.5,151.5 C 441.292,154.835 442.959,158.835 443.5,163.5C 448.179,163.334 452.845,163.501 457.5,164C 453.795,166.845 450.128,169.678 446.5,172.5C 448.605,176.307 449.772,180.307 450,184.5C 446.414,182.291 442.914,179.957 439.5,177.5C 436.167,179.833 432.833,182.167 429.5,184.5C 429.2,180.356 430.2,176.356 432.5,172.5C 429.233,169.194 425.567,166.361 421.5,164C 426.155,163.501 430.821,163.334 435.5,163.5C 436.5,159.5 437.5,155.5 438.5,151.5 Z"/></g>
<g><path style="opacity:1" fill="#f4f5f7" d="M 78.5,185.5 C 81.2923,188.835 82.959,192.835 83.5,197.5C 88.1785,197.334 92.8452,197.501 97.5,198C 93.7946,200.845 90.1279,203.678 86.5,206.5C 88.4882,210.451 89.4882,214.451 89.5,218.5C 86.1667,216.167 82.8333,213.833 79.5,211.5C 76.3603,213.473 73.3603,215.64 70.5,218C 69.5165,218.591 68.8499,218.257 68.5,217C 69.7576,213.468 71.0909,209.968 72.5,206.5C 68.8721,203.678 65.2054,200.845 61.5,198C 66.1548,197.501 70.8215,197.334 75.5,197.5C 76.5,193.5 77.5,189.5 78.5,185.5 Z"/></g>
<g><path style="opacity:1" fill="#f4f5f7" d="M 158.5,185.5 C 161.292,188.835 162.959,192.835 163.5,197.5C 168.179,197.334 172.845,197.501 177.5,198C 173.795,200.845 170.128,203.678 166.5,206.5C 168.488,210.451 169.488,214.451 169.5,218.5C 166.167,216.167 162.833,213.833 159.5,211.5C 156.36,213.473 153.36,215.64 150.5,218C 149.517,218.591 148.85,218.257 148.5,217C 149.758,213.468 151.091,209.968 152.5,206.5C 148.872,203.678 145.205,200.845 141.5,198C 146.155,197.501 150.821,197.334 155.5,197.5C 156.5,193.5 157.5,189.5 158.5,185.5 Z"/></g>
<g><path style="opacity:1" fill="#f4f5f7" d="M 238.5,185.5 C 241.292,188.835 242.959,192.835 243.5,197.5C 248.179,197.334 252.845,197.501 257.5,198C 253.795,200.845 250.128,203.678 246.5,206.5C 248.488,210.451 249.488,214.451 249.5,218.5C 246.167,216.167 242.833,213.833 239.5,211.5C 236.36,213.473 233.36,215.64 230.5,218C 229.517,218.591 228.85,218.257 228.5,217C 229.758,213.468 231.091,209.968 232.5,206.5C 228.872,203.678 225.205,200.845 221.5,198C 226.155,197.501 230.821,197.334 235.5,197.5C 236.5,193.5 237.5,189.5 238.5,185.5 Z"/></g>
<g><path style="opacity:1" fill="#f4f5f7" d="M 318.5,185.5 C 321.292,188.835 322.959,192.835 323.5,197.5C 328.179,197.334 332.845,197.501 337.5,198C 333.795,200.845 330.128,203.678 326.5,206.5C 328.488,210.451 329.488,214.451 329.5,218.5C 326.167,216.167 322.833,213.833 319.5,211.5C 316.36,213.473 313.36,215.64 310.5,218C 309.517,218.591 308.85,218.257 308.5,217C 309.758,213.468 311.091,209.968 312.5,206.5C 308.872,203.678 305.205,200.845 301.5,198C 306.155,197.501 310.821,197.334 315.5,197.5C 316.5,193.5 317.5,189.5 318.5,185.5 Z"/></g>
<g><path style="opacity:1" fill="#f4f5f7" d="M 398.5,185.5 C 401.292,188.835 402.959,192.835 403.5,197.5C 408.179,197.334 412.845,197.501 417.5,198C 413.795,200.845 410.128,203.678 406.5,206.5C 408.488,210.451 409.488,214.451 409.5,218.5C 406.167,216.167 402.833,213.833 399.5,211.5C 396.36,213.473 393.36,215.64 390.5,218C 389.517,218.591 388.85,218.257 388.5,217C 389.758,213.468 391.091,209.968 392.5,206.5C 388.872,203.678 385.205,200.845 381.5,198C 386.155,197.501 390.821,197.334 395.5,197.5C 396.5,193.5 397.5,189.5 398.5,185.5 Z"/></g>
<g><path style="opacity:1" fill="#bb4852" d="M 479.5,193.5 C 620.167,193.5 760.833,193.5 901.5,193.5C 901.5,194.167 901.5,194.833 901.5,195.5C 760.833,195.5 620.167,195.5 479.5,195.5C 479.5,194.833 479.5,194.167 479.5,193.5 Z"/></g>
<g><path style="opacity:1" fill="#b22134" d="M 479.5,195.5 C 620.167,195.5 760.833,195.5 901.5,195.5C 901.5,211.167 901.5,226.833 901.5,242.5C 760.833,242.5 620.167,242.5 479.5,242.5C 479.5,226.833 479.5,211.167 479.5,195.5 Z"/></g>
<g><path style="opacity:1" fill="#f4f5f7" d="M 38.5,219.5 C 41.2923,222.835 42.959,226.835 43.5,231.5C 48.1785,231.334 52.8452,231.501 57.5,232C 53.7946,234.845 50.1279,237.678 46.5,240.5C 48.1181,244.068 49.4515,247.735 50.5,251.5C 50.1667,251.833 49.8333,252.167 49.5,252.5C 46.1667,250.167 42.8333,247.833 39.5,245.5C 36.3603,247.473 33.3603,249.64 30.5,252C 29.5165,252.591 28.8499,252.257 28.5,251C 29.6945,247.445 31.0278,243.945 32.5,240.5C 28.8333,237.667 25.1667,234.833 21.5,232C 26.1548,231.501 30.8215,231.334 35.5,231.5C 36.5,227.5 37.5,223.5 38.5,219.5 Z"/></g>
<g><path style="opacity:1" fill="#f4f5f7" d="M 118.5,219.5 C 121.292,222.835 122.959,226.835 123.5,231.5C 128.179,231.334 132.845,231.501 137.5,232C 133.795,234.845 130.128,237.678 126.5,240.5C 128.118,244.068 129.451,247.735 130.5,251.5C 130.167,251.833 129.833,252.167 129.5,252.5C 126.167,250.167 122.833,247.833 119.5,245.5C 116.36,247.473 113.36,249.64 110.5,252C 109.517,252.591 108.85,252.257 108.5,251C 109.694,247.445 111.028,243.945 112.5,240.5C 108.833,237.667 105.167,234.833 101.5,232C 106.155,231.501 110.821,231.334 115.5,231.5C 116.5,227.5 117.5,223.5 118.5,219.5 Z"/></g>
<g><path style="opacity:1" fill="#f4f5f7" d="M 198.5,219.5 C 201.292,222.835 202.959,226.835 203.5,231.5C 208.179,231.334 212.845,231.501 217.5,232C 213.795,234.845 210.128,237.678 206.5,240.5C 208.118,244.068 209.451,247.735 210.5,251.5C 210.167,251.833 209.833,252.167 209.5,252.5C 206.167,250.167 202.833,247.833 199.5,245.5C 196.36,247.473 193.36,249.64 190.5,252C 189.517,252.591 188.85,252.257 188.5,251C 189.694,247.445 191.028,243.945 192.5,240.5C 188.833,237.667 185.167,234.833 181.5,232C 186.155,231.501 190.821,231.334 195.5,231.5C 196.5,227.5 197.5,223.5 198.5,219.5 Z"/></g>
<g><path style="opacity:1" fill="#f4f5f7" d="M 278.5,219.5 C 281.292,222.835 282.959,226.835 283.5,231.5C 288.179,231.334 292.845,231.501 297.5,232C 293.795,234.845 290.128,237.678 286.5,240.5C 288.118,244.068 289.451,247.735 290.5,251.5C 290.167,251.833 289.833,252.167 289.5,252.5C 286.167,250.167 282.833,247.833 279.5,245.5C 276.36,247.473 273.36,249.64 270.5,252C 269.517,252.591 268.85,252.257 268.5,251C 269.694,247.445 271.028,243.945 272.5,240.5C 268.833,237.667 265.167,234.833 261.5,232C 266.155,231.501 270.821,231.334 275.5,231.5C 276.5,227.5 277.5,223.5 278.5,219.5 Z"/></g>
<g><path style="opacity:1" fill="#f4f5f7" d="M 358.5,219.5 C 361.292,222.835 362.959,226.835 363.5,231.5C 368.179,231.334 372.845,231.501 377.5,232C 373.795,234.845 370.128,237.678 366.5,240.5C 368.118,244.068 369.451,247.735 370.5,251.5C 370.167,251.833 369.833,252.167 369.5,252.5C 366.167,250.167 362.833,247.833 359.5,245.5C 356.36,247.473 353.36,249.64 350.5,252C 349.517,252.591 348.85,252.257 348.5,251C 349.694,247.445 351.028,243.945 352.5,240.5C 348.833,237.667 345.167,234.833 341.5,232C 346.155,231.501 350.821,231.334 355.5,231.5C 356.5,227.5 357.5,223.5 358.5,219.5 Z"/></g>
<g><path style="opacity:1" fill="#f4f5f7" d="M 438.5,219.5 C 441.292,222.835 442.959,226.835 443.5,231.5C 448.179,231.334 452.845,231.501 457.5,232C 453.795,234.845 450.128,237.678 446.5,240.5C 448.118,244.068 449.451,247.735 450.5,251.5C 450.167,251.833 449.833,252.167 449.5,252.5C 446.167,250.167 442.833,247.833 439.5,245.5C 436.36,247.473 433.36,249.64 430.5,252C 429.517,252.591 428.85,252.257 428.5,251C 429.694,247.445 431.028,243.945 432.5,240.5C 428.833,237.667 425.167,234.833 421.5,232C 426.155,231.501 430.821,231.334 435.5,231.5C 436.5,227.5 437.5,223.5 438.5,219.5 Z"/></g>
<g><path style="opacity:1" fill="#fefcfc" d="M 479.5,242.5 C 620.167,242.5 760.833,242.5 901.5,242.5C 901.5,258.833 901.5,275.167 901.5,291.5C 760.833,291.5 620.167,291.5 479.5,291.5C 479.5,275.167 479.5,258.833 479.5,242.5 Z"/></g>
<g><path style="opacity:1" fill="#f3f3f6" d="M 78.5,253.5 C 79.4972,253.47 80.1639,253.97 80.5,255C 81.5785,258.149 82.5785,261.316 83.5,264.5C 88.1315,265.328 92.7982,265.828 97.5,266C 93.8333,268.833 90.1667,271.667 86.5,274.5C 88.7995,278.356 89.7995,282.356 89.5,286.5C 86.1667,284.167 82.8333,281.833 79.5,279.5C 76.1667,281.833 72.8333,284.167 69.5,286.5C 69.2005,282.356 70.2005,278.356 72.5,274.5C 68.8333,271.667 65.1667,268.833 61.5,266C 66.1548,265.501 70.8215,265.334 75.5,265.5C 76.5,261.5 77.5,257.5 78.5,253.5 Z"/></g>
<g><path style="opacity:1" fill="#f3f3f6" d="M 158.5,253.5 C 159.497,253.47 160.164,253.97 160.5,255C 161.578,258.149 162.578,261.316 163.5,264.5C 168.132,265.328 172.798,265.828 177.5,266C 173.833,268.833 170.167,271.667 166.5,274.5C 168.8,278.356 169.8,282.356 169.5,286.5C 166.167,284.167 162.833,281.833 159.5,279.5C 156.167,281.833 152.833,284.167 149.5,286.5C 149.2,282.356 150.2,278.356 152.5,274.5C 148.833,271.667 145.167,268.833 141.5,266C 146.155,265.501 150.821,265.334 155.5,265.5C 156.5,261.5 157.5,257.5 158.5,253.5 Z"/></g>
<g><path style="opacity:1" fill="#f3f3f6" d="M 238.5,253.5 C 239.497,253.47 240.164,253.97 240.5,255C 241.578,258.149 242.578,261.316 243.5,264.5C 248.132,265.328 252.798,265.828 257.5,266C 253.833,268.833 250.167,271.667 246.5,274.5C 248.8,278.356 249.8,282.356 249.5,286.5C 246.167,284.167 242.833,281.833 239.5,279.5C 236.167,281.833 232.833,284.167 229.5,286.5C 229.2,282.356 230.2,278.356 232.5,274.5C 228.833,271.667 225.167,268.833 221.5,266C 226.155,265.501 230.821,265.334 235.5,265.5C 236.5,261.5 237.5,257.5 238.5,253.5 Z"/></g>
<g><path style="opacity:1" fill="#f3f3f6" d="M 318.5,253.5 C 319.497,253.47 320.164,253.97 320.5,255C 321.578,258.149 322.578,261.316 323.5,264.5C 328.132,265.328 332.798,265.828 337.5,266C 333.833,268.833 330.167,271.667 326.5,274.5C 328.8,278.356 329.8,282.356 329.5,286.5C 326.167,284.167 322.833,281.833 319.5,279.5C 316.167,281.833 312.833,284.167 309.5,286.5C 309.2,282.356 310.2,278.356 312.5,274.5C 308.833,271.667 305.167,268.833 301.5,266C 306.155,265.501 310.821,265.334 315.5,265.5C 316.5,261.5 317.5,257.5 318.5,253.5 Z"/></g>
<g><path style="opacity:1" fill="#f3f3f6" d="M 398.5,253.5 C 399.497,253.47 400.164,253.97 400.5,255C 401.578,258.149 402.578,261.316 403.5,264.5C 408.132,265.328 412.798,265.828 417.5,266C 413.833,268.833 410.167,271.667 406.5,274.5C 408.8,278.356 409.8,282.356 409.5,286.5C 406.167,284.167 402.833,281.833 399.5,279.5C 396.167,281.833 392.833,284.167 389.5,286.5C 389.2,282.356 390.2,278.356 392.5,274.5C 388.833,271.667 385.167,268.833 381.5,266C 386.155,265.501 390.821,265.334 395.5,265.5C 396.5,261.5 397.5,257.5 398.5,253.5 Z"/></g>
<g><path style="opacity:1" fill="#f4f4f7" d="M 38.5,287.5 C 41.2923,290.835 42.959,294.835 43.5,299.5C 48.1785,299.334 52.8452,299.501 57.5,300C 53.8333,302.833 50.1667,305.667 46.5,308.5C 48.4945,312.475 49.4945,316.475 49.5,320.5C 46.1667,318.167 42.8333,315.833 39.5,313.5C 36.3603,315.473 33.3603,317.64 30.5,320C 29.6683,320.688 29.0016,320.521 28.5,319.5C 29.6815,315.772 31.0148,312.105 32.5,308.5C 28.8721,305.678 25.2054,302.845 21.5,300C 26.1548,299.501 30.8215,299.334 35.5,299.5C 36.5,295.5 37.5,291.5 38.5,287.5 Z"/></g>
<g><path style="opacity:1" fill="#f4f4f7" d="M 118.5,287.5 C 121.292,290.835 122.959,294.835 123.5,299.5C 128.179,299.334 132.845,299.501 137.5,300C 133.833,302.833 130.167,305.667 126.5,308.5C 128.494,312.475 129.494,316.475 129.5,320.5C 126.167,318.167 122.833,315.833 119.5,313.5C 116.36,315.473 113.36,317.64 110.5,320C 109.668,320.688 109.002,320.521 108.5,319.5C 109.681,315.772 111.015,312.105 112.5,308.5C 108.872,305.678 105.205,302.845 101.5,300C 106.155,299.501 110.821,299.334 115.5,299.5C 116.5,295.5 117.5,291.5 118.5,287.5 Z"/></g>
<g><path style="opacity:1" fill="#f4f4f7" d="M 198.5,287.5 C 201.292,290.835 202.959,294.835 203.5,299.5C 208.179,299.334 212.845,299.501 217.5,300C 213.833,302.833 210.167,305.667 206.5,308.5C 208.494,312.475 209.494,316.475 209.5,320.5C 206.167,318.167 202.833,315.833 199.5,313.5C 196.36,315.473 193.36,317.64 190.5,320C 189.668,320.688 189.002,320.521 188.5,319.5C 189.681,315.772 191.015,312.105 192.5,308.5C 188.872,305.678 185.205,302.845 181.5,300C 186.155,299.501 190.821,299.334 195.5,299.5C 196.5,295.5 197.5,291.5 198.5,287.5 Z"/></g>
<g><path style="opacity:1" fill="#f4f4f7" d="M 278.5,287.5 C 281.292,290.835 282.959,294.835 283.5,299.5C 288.179,299.334 292.845,299.501 297.5,300C 293.833,302.833 290.167,305.667 286.5,308.5C 288.494,312.475 289.494,316.475 289.5,320.5C 286.167,318.167 282.833,315.833 279.5,313.5C 276.36,315.473 273.36,317.64 270.5,320C 269.668,320.688 269.002,320.521 268.5,319.5C 269.681,315.772 271.015,312.105 272.5,308.5C 268.872,305.678 265.205,302.845 261.5,300C 266.155,299.501 270.821,299.334 275.5,299.5C 276.5,295.5 277.5,291.5 278.5,287.5 Z"/></g>
<g><path style="opacity:1" fill="#f4f4f7" d="M 358.5,287.5 C 361.292,290.835 362.959,294.835 363.5,299.5C 368.179,299.334 372.845,299.501 377.5,300C 373.833,302.833 370.167,305.667 366.5,308.5C 368.494,312.475 369.494,316.475 369.5,320.5C 366.167,318.167 362.833,315.833 359.5,313.5C 356.36,315.473 353.36,317.64 350.5,320C 349.668,320.688 349.002,320.521 348.5,319.5C 349.681,315.772 351.015,312.105 352.5,308.5C 348.872,305.678 345.205,302.845 341.5,300C 346.155,299.501 350.821,299.334 355.5,299.5C 356.5,295.5 357.5,291.5 358.5,287.5 Z"/></g>
<g><path style="opacity:1" fill="#f4f4f7" d="M 438.5,287.5 C 441.292,290.835 442.959,294.835 443.5,299.5C 448.179,299.334 452.845,299.501 457.5,300C 453.833,302.833 450.167,305.667 446.5,308.5C 448.494,312.475 449.494,316.475 449.5,320.5C 446.167,318.167 442.833,315.833 439.5,313.5C 436.36,315.473 433.36,317.64 430.5,320C 429.668,320.688 429.002,320.521 428.5,319.5C 429.681,315.772 431.015,312.105 432.5,308.5C 428.872,305.678 425.205,302.845 421.5,300C 426.155,299.501 430.821,299.334 435.5,299.5C 436.5,295.5 437.5,291.5 438.5,287.5 Z"/></g>
<g><path style="opacity:1" fill="#b22134" d="M 479.5,291.5 C 620.167,291.5 760.833,291.5 901.5,291.5C 901.5,306.5 901.5,321.5 901.5,336.5C 760.833,336.5 620.167,336.5 479.5,336.5C 479.5,321.5 479.5,306.5 479.5,291.5 Z"/></g>
<g><path style="opacity:1" fill="#3c3b6e" d="M -0.5,336.5 C 159.5,336.5 319.5,336.5 479.5,336.5C 479.5,337.5 479.5,338.5 479.5,339.5C 319.5,339.5 159.5,339.5 -0.5,339.5C -0.5,338.5 -0.5,337.5 -0.5,336.5 Z"/></g>
<g><path style="opacity:1" fill="#b42133" d="M 479.5,336.5 C 620.167,336.5 760.833,336.5 901.5,336.5C 901.5,337.5 901.5,338.5 901.5,339.5C 760.833,339.5 620.167,339.5 479.5,339.5C 479.5,338.5 479.5,337.5 479.5,336.5 Z"/></g>
<g><path style="opacity:1" fill="#fdfcfc" d="M -0.5,339.5 C 159.5,339.5 319.5,339.5 479.5,339.5C 620.167,339.5 760.833,339.5 901.5,339.5C 901.5,355.833 901.5,372.167 901.5,388.5C 600.833,388.5 300.167,388.5 -0.5,388.5C -0.5,372.167 -0.5,355.833 -0.5,339.5 Z"/></g>
<g><path style="opacity:1" fill="#a52836" d="M -0.5,388.5 C 300.167,388.5 600.833,388.5 901.5,388.5C 901.5,389.167 901.5,389.833 901.5,390.5C 600.833,390.5 300.167,390.5 -0.5,390.5C -0.5,389.833 -0.5,389.167 -0.5,388.5 Z"/></g>
<g><path style="opacity:1" fill="#b32435" d="M -0.5,390.5 C 300.167,390.5 600.833,390.5 901.5,390.5C 901.5,406.167 901.5,421.833 901.5,437.5C 600.833,437.5 300.167,437.5 -0.5,437.5C -0.5,421.833 -0.5,406.167 -0.5,390.5 Z"/></g>
<g><path style="opacity:1" fill="#f9fdfe" d="M -0.5,437.5 C 300.167,437.5 600.833,437.5 901.5,437.5C 901.5,438.5 901.5,439.5 901.5,440.5C 600.833,440.5 300.167,440.5 -0.5,440.5C -0.5,439.5 -0.5,438.5 -0.5,437.5 Z"/></g>
<g><path style="opacity:1" fill="#fefefe" d="M -0.5,440.5 C 300.167,440.5 600.833,440.5 901.5,440.5C 901.5,453.833 901.5,467.167 901.5,480.5C 600.833,480.5 300.167,480.5 -0.5,480.5C -0.5,467.167 -0.5,453.833 -0.5,440.5 Z"/></g>
<g><path style="opacity:1" fill="#fffbfa" d="M -0.5,480.5 C 300.167,480.5 600.833,480.5 901.5,480.5C 901.5,481.167 901.5,481.833 901.5,482.5C 600.833,482.5 300.167,482.5 -0.5,482.5C -0.5,481.833 -0.5,481.167 -0.5,480.5 Z"/></g>
<g><path style="opacity:1" fill="#f9fcfd" d="M -0.5,482.5 C 300.167,482.5 600.833,482.5 901.5,482.5C 901.5,483.5 901.5,484.5 901.5,485.5C 600.833,485.5 300.167,485.5 -0.5,485.5C -0.5,484.5 -0.5,483.5 -0.5,482.5 Z"/></g>
<g><path style="opacity:1" fill="#b42e3c" d="M -0.5,485.5 C 300.167,485.5 600.833,485.5 901.5,485.5C 901.5,486.5 901.5,487.5 901.5,488.5C 600.833,488.5 300.167,488.5 -0.5,488.5C -0.5,487.5 -0.5,486.5 -0.5,485.5 Z"/></g>
<g><path style="opacity:1" fill="#ad2335" d="M -0.5,488.5 C 300.167,488.5 600.833,488.5 901.5,488.5C 901.5,489.167 901.5,489.833 901.5,490.5C 600.833,490.5 300.167,490.5 -0.5,490.5C -0.5,489.833 -0.5,489.167 -0.5,488.5 Z"/></g>
<g><path style="opacity:1" fill="#b22134" d="M -0.5,490.5 C 300.167,490.5 600.833,490.5 901.5,490.5C 901.5,503.833 901.5,517.167 901.5,530.5C 600.833,530.5 300.167,530.5 -0.5,530.5C -0.5,517.167 -0.5,503.833 -0.5,490.5 Z"/></g>
<g><path style="opacity:1" fill="#b4313e" d="M -0.5,530.5 C 300.167,530.5 600.833,530.5 901.5,530.5C 901.5,531.833 901.5,533.167 901.5,534.5C 600.833,534.5 300.167,534.5 -0.5,534.5C -0.5,533.167 -0.5,531.833 -0.5,530.5 Z"/></g>
<g><path style="opacity:1" fill="#fefefe" d="M -0.5,534.5 C 300.167,534.5 600.833,534.5 901.5,534.5C 901.5,550.5 901.5,566.5 901.5,582.5C 600.833,582.5 300.167,582.5 -0.5,582.5C -0.5,566.5 -0.5,550.5 -0.5,534.5 Z"/></g>
<g><path style="opacity:1" fill="#b14752" d="M -0.5,582.5 C 300.167,582.5 600.833,582.5 901.5,582.5C 901.5,583.167 901.5,583.833 901.5,584.5C 600.833,584.5 300.167,584.5 -0.5,584.5C -0.5,583.833 -0.5,583.167 -0.5,582.5 Z"/></g>
<g><path style="opacity:1" fill="#b71f33" d="M -0.5,584.5 C 300.167,584.5 600.833,584.5 901.5,584.5C 901.5,585.167 901.5,585.833 901.5,586.5C 600.833,586.5 300.167,586.5 -0.5,586.5C -0.5,585.833 -0.5,585.167 -0.5,584.5 Z"/></g>
<g><path style="opacity:1" fill="#b22134" d="M -0.5,586.5 C 300.167,586.5 600.833,586.5 901.5,586.5C 901.5,601.5 901.5,616.5 901.5,631.5C 600.833,631.5 300.167,631.5 -0.5,631.5C -0.5,616.5 -0.5,601.5 -0.5,586.5 Z"/></g>
</svg>
