<?xml version="1.0" encoding="UTF-8"?>
<svg version="1.1" xmlns="http://www.w3.org/2000/svg" width="512" height="512">
<path d="M0 0 C1.44970963 0.81743752 2.91890818 1.60017465 4.39208984 2.37451172 C13.96017369 7.40410624 22.24908518 14.2585278 30.39697266 21.29101562 C32.77678571 23.34443327 35.10382801 25.22530591 37.72412109 26.97216797 C37.72412109 27.63216797 37.72412109 28.29216797 37.72412109 28.97216797 C38.59230469 29.35695313 38.59230469 29.35695313 39.47802734 29.74951172 C49.19131936 35.03692111 55.93126157 46.53749981 62.33300781 55.21386719 C63.69491221 56.93524933 65.16540536 58.43063793 66.72412109 59.97216797 C68.58636779 62.86120137 70.12942894 65.92892795 71.72412109 68.97216797 C72.27455078 70.00857422 72.82498047 71.04498047 73.39208984 72.11279297 C82.94303453 90.58216944 88.82033166 109.45538978 88.92724609 130.42138672 C88.93294617 131.31469193 88.93864624 132.20799713 88.94451904 133.12837219 C88.95392326 135.01680335 88.9604847 136.90525057 88.96435547 138.79370117 C88.97394081 141.60676036 89.00495728 144.4190491 89.03662109 147.23193359 C89.10598634 159.33726436 88.05928461 170.93611098 86.06655884 182.87332153 C85.62389576 185.58646238 85.26644427 188.30883014 84.91162109 191.03466797 C80.74228727 215.28629307 70.23932485 239.21536286 55.72412109 258.97216797 C54.71843867 260.63541198 53.7174731 262.3015305 52.72412109 263.97216797 C51.74167264 265.31848622 50.74735545 266.65658094 49.72412109 267.97216797 C45.58452482 267.43802651 42.15956196 265.94904431 38.41162109 264.21435547 C36.38205128 263.27626942 34.33759803 262.37029091 32.28662109 261.47998047 C30.52318359 260.70267578 30.52318359 260.70267578 28.72412109 259.90966797 C27.61037109 259.42369141 26.49662109 258.93771484 25.34912109 258.43701172 C22.72412109 256.97216797 22.72412109 256.97216797 21.72412109 253.97216797 C22.54443359 251.22216797 22.54443359 251.22216797 23.84912109 247.97216797 C24.26419922 246.92029297 24.67927734 245.86841797 25.10693359 244.78466797 C26.4413095 241.56800437 27.88060575 238.40239825 29.32519531 235.23388672 C29.99940018 233.75408325 29.99940018 233.75408325 30.68722534 232.24438477 C31.02940094 231.49455322 31.37157654 230.74472168 31.72412109 229.97216797 C29.98644722 229.97549889 29.98644722 229.97549889 28.21366882 229.97889709 C17.30994105 229.99914641 6.40621708 230.01414877 -4.49752522 230.02398014 C-10.10358271 230.0292044 -15.70962505 230.03629381 -21.31567383 230.04760742 C-26.72322425 230.05845247 -32.13076008 230.06444826 -37.53832054 230.06704521 C-39.60403867 230.06889653 -41.66975598 230.07251156 -43.73546791 230.07789803 C-46.62306079 230.08512986 -49.51059292 230.086158 -52.39819336 230.08569336 C-53.68644264 230.09108627 -53.68644264 230.09108627 -55.00071716 230.09658813 C-58.34636529 230.09074157 -61.07938301 230.0376666 -64.27587891 228.97216797 C-65.63233427 207.35299156 -65.39337724 185.71351414 -65.34454346 164.06298828 C-65.33416982 158.9669639 -65.32971625 153.87093432 -65.32470703 148.77490234 C-65.31409839 138.8406442 -65.29711363 128.9064087 -65.27587891 118.97216797 C-65.90751953 118.97740479 -66.53916016 118.9826416 -67.18994141 118.98803711 C-70.2185759 119.00958449 -73.24719443 119.02206346 -76.27587891 119.03466797 C-77.26716797 119.04304687 -78.25845703 119.05142578 -79.27978516 119.06005859 C-90.95743399 119.0958796 -102.61297051 118.50678382 -114.27587891 117.97216797 C-114.26538293 118.83522962 -114.26538293 118.83522962 -114.25467491 119.71572685 C-114.08526568 133.70286821 -113.92709673 147.69009754 -113.78110313 161.67750359 C-113.71029535 168.44165267 -113.63569938 175.2057207 -113.55224609 181.96972656 C-113.47178076 188.49241045 -113.40179174 195.01515714 -113.33830643 201.53802872 C-113.31230195 204.03164697 -113.28273494 206.5252306 -113.24961472 209.0187645 C-113.20396693 212.50044223 -113.17077394 215.98202572 -113.140625 219.46386719 C-113.12408371 220.50395935 -113.10754242 221.54405151 -113.09049988 222.61566162 C-113.08483505 223.5607962 -113.07917023 224.50593079 -113.07333374 225.47970581 C-113.06411581 226.30378874 -113.05489788 227.12787167 -113.04540062 227.9769268 C-113.27587891 229.97216797 -113.27587891 229.97216797 -115.27587891 231.97216797 C-117.8737793 232.18334961 -117.8737793 232.18334961 -121.12353516 232.13232422 C-122.285625 232.12136719 -123.44771484 232.11041016 -124.64501953 232.09912109 C-125.86382812 232.07785156 -127.08263672 232.05658203 -128.33837891 232.03466797 C-130.74587341 232.0004021 -133.15343079 231.97022371 -135.56103516 231.94482422 C-136.63232666 231.92685791 -137.70361816 231.9088916 -138.80737305 231.89038086 C-141.22037607 231.68889719 -141.22037607 231.68889719 -142.27587891 232.97216797 C-144.27197266 232.92138672 -144.27197266 232.92138672 -146.71337891 232.65966797 C-147.51646484 232.58103516 -148.31955078 232.50240234 -149.14697266 232.42138672 C-151.27587891 231.97216797 -151.27587891 231.97216797 -153.27587891 229.97216797 C-153.52197456 227.9769268 -153.52197456 227.9769268 -153.51638794 225.47970581 C-153.51913727 224.53457123 -153.5218866 223.58943665 -153.52471924 222.61566162 C-153.51393341 221.05552338 -153.51393341 221.05552338 -153.50292969 219.46386719 C-153.50322174 218.37117523 -153.50351379 217.27848328 -153.5038147 216.15267944 C-153.50241715 212.52732505 -153.48683589 208.90217412 -153.47119141 205.27685547 C-153.46746279 202.76864738 -153.4646151 200.26043784 -153.46261597 197.75222778 C-153.4557501 191.81654511 -153.43997418 185.88092812 -153.41991699 179.94527924 C-153.39538904 172.52586979 -153.38463151 165.10645132 -153.37353516 157.68701172 C-153.35206404 144.44868582 -153.3168721 131.21044783 -153.27587891 117.97216797 C-167.13587891 117.97216797 -180.99587891 117.97216797 -195.27587891 117.97216797 C-195.29650391 112.71279297 -195.31712891 107.45341797 -195.33837891 102.03466797 C-195.34748291 100.37314697 -195.35658691 98.71162598 -195.3659668 96.99975586 C-195.36846436 95.70287842 -195.37096191 94.40600098 -195.37353516 93.06982422 C-195.37865112 92.38400269 -195.38376709 91.69818115 -195.38903809 90.99157715 C-195.38934945 89.31801566 -195.33810728 87.64457217 -195.27587891 85.97216797 C-194.27587891 84.97216797 -194.27587891 84.97216797 -191.52911282 84.84912014 C-189.67216085 84.85050283 -189.67216085 84.85050283 -187.7776947 84.85191345 C-187.09080348 84.85105903 -186.40391226 84.8502046 -185.69620615 84.84932429 C-183.37760435 84.84766752 -181.05907373 84.85319403 -178.74047852 84.85864258 C-177.08517966 84.85892443 -175.42988069 84.85876675 -173.77458191 84.85820007 C-169.26650958 84.85791203 -164.75846362 84.86380978 -160.25039744 84.87077403 C-155.54450154 84.87700652 -150.83860509 84.87761128 -146.13270569 84.87879944 C-137.21499257 84.88191307 -128.29729164 84.89012687 -119.3795839 84.90014893 C-109.22981594 84.91130909 -99.08004741 84.91682027 -88.93027484 84.92184436 C-68.04546938 84.93230946 -47.16067491 84.94990951 -26.27587891 84.97216797 C-25.43767247 87.89288499 -25.15206264 90.48070777 -25.15562439 93.51531982 C-25.15356239 94.87403954 -25.15356239 94.87403954 -25.15145874 96.26020813 C-25.15505402 97.24635605 -25.15864929 98.23250397 -25.16235352 99.24853516 C-25.16220749 100.29275131 -25.16206146 101.33696747 -25.16191101 102.41282654 C-25.16260777 105.8649198 -25.17038917 109.31695913 -25.17822266 112.76904297 C-25.18008767 115.16229218 -25.18151118 117.55554177 -25.18251038 119.9487915 C-25.18632895 126.24852553 -25.19615364 132.54823651 -25.20721436 138.84796143 C-25.21744263 145.27607919 -25.22201104 151.70420067 -25.22705078 158.13232422 C-25.23777647 170.7456153 -25.25465285 183.35889041 -25.27587891 195.97216797 C-10.48306725 196.83464561 -10.48306725 196.83464561 4.32958984 197.06982422 C5.62102654 197.0677018 5.62102654 197.0677018 6.93855286 197.0655365 C9.59628314 197.06009241 12.25391781 197.04757535 14.91162109 197.03466797 C16.75211464 197.02963264 18.59260955 197.0250734 20.43310547 197.02099609 C24.86347891 197.01017509 29.29378402 196.99302794 33.72412109 196.97216797 C35.2263144 200.33261078 35.96947935 202.9383358 35.91943359 206.61669922 C35.91298828 207.4578125 35.90654297 208.29892578 35.89990234 209.16552734 C35.88314453 210.02984375 35.86638672 210.89416016 35.84912109 211.78466797 C35.84009766 212.66832031 35.83107422 213.55197266 35.82177734 214.46240234 C35.79831746 216.63244156 35.76244974 218.80234044 35.72412109 220.97216797 C44.57624629 212.59853603 48.38998549 201.55238408 51.04833984 189.85888672 C51.72412109 186.97216797 51.72412109 186.97216797 52.73583984 183.81982422 C54.02391912 178.80497011 54.45052196 173.87484096 54.84912109 168.72216797 C54.93258789 167.66022217 55.01605469 166.59827637 55.10205078 165.50415039 C57.42181163 133.94830148 53.76330263 105.57460143 39.72412109 76.97216797 C38.98548828 75.43496094 38.98548828 75.43496094 38.23193359 73.86669922 C25.46162778 48.86720224 3.24382944 30.77725558 -22.27587891 19.97216797 C-23.83242188 19.30894531 -23.83242188 19.30894531 -25.42041016 18.63232422 C-54.28644069 6.92218359 -85.27098054 6.43726897 -115.33837891 13.34716797 C-116.64150024 13.64240356 -116.64150024 13.64240356 -117.97094727 13.94360352 C-122.84306934 15.12810378 -127.12847703 16.66738039 -131.5456543 19.04907227 C-133.19981532 19.93158713 -134.92596738 20.67498343 -136.65087891 21.40966797 C-139.60671099 22.68373352 -142.50613118 24.00511582 -145.40087891 25.40966797 C-146.20783203 25.80025391 -147.01478516 26.19083984 -147.84619141 26.59326172 C-150.57944816 28.14445084 -152.85053431 29.9759228 -155.27587891 31.97216797 C-158.02213343 33.99240118 -160.78921353 35.98175691 -163.55712891 37.97216797 C-168.15934014 41.35770267 -172.28374511 44.88498337 -176.27587891 48.97216797 C-177.09765625 49.76107422 -177.09765625 49.76107422 -177.93603516 50.56591797 C-182.23195033 54.72020957 -185.80825988 59.11363769 -189.27587891 63.97216797 C-189.70771484 64.54837891 -190.13955078 65.12458984 -190.58447266 65.71826172 C-198.07166464 75.8178073 -203.9076959 87.72715875 -207.57788086 99.73217773 C-208.2391882 101.85442148 -208.95895485 103.94732653 -209.68994141 106.04638672 C-219.50135504 135.61626929 -222.41352257 176.58887772 -208.24462891 205.26513672 C-207.5940654 206.50381708 -206.93836977 207.73982558 -206.27587891 208.97216797 C-205.80666016 209.89642578 -205.33744141 210.82068359 -204.85400391 211.77294922 C-190.63405132 238.66538896 -165.41841663 262.27237341 -138.03369141 275.13964844 C-136.59268049 275.82212722 -135.16633866 276.53549936 -133.74462891 277.25732422 C-127.24991568 280.44409582 -120.33994686 281.62310148 -113.27587891 282.97216797 C-112.55770996 283.14280762 -111.83954102 283.31344727 -111.09960938 283.48925781 C-103.82210846 285.14992554 -96.72266665 285.35644533 -89.27587891 285.34716797 C-87.99366455 285.34628174 -86.7114502 285.34539551 -85.39038086 285.34448242 C-75.89217872 285.22662982 -67.37955728 284.02208668 -58.26708984 281.48046875 C-55.57137067 280.79232661 -52.85714554 280.36096451 -50.11157227 279.92285156 C-42.44726304 278.68908922 -35.72536561 276.48962277 -28.65087891 273.42529297 C-25.91735153 272.24835757 -23.20989458 271.25263959 -20.40087891 270.28466797 C-12.10528628 267.0086119 -2.60348957 261.29977864 3.72412109 254.97216797 C6.29179934 255.18187874 7.39718366 255.61181428 9.13818359 257.53076172 C9.53779297 258.15080078 9.93740234 258.77083984 10.34912109 259.40966797 C11.73382458 261.52200227 12.92419917 263.17224604 14.72412109 264.97216797 C15.66791762 266.07095748 16.60474048 267.17575463 17.53662109 268.28466797 C20.13573376 271.3371885 22.84806386 274.18070065 25.72412109 276.97216797 C21.00676332 287.38210653 9.4101735 293.73970254 -0.27587891 298.97216797 C-1.50757813 299.66439453 -1.50757813 299.66439453 -2.76416016 300.37060547 C-13.62543657 306.42342429 -24.18746563 310.93013869 -36.27587891 313.97216797 C-36.95320068 314.14296875 -37.63052246 314.31376953 -38.32836914 314.48974609 C-79.39139468 324.28986043 -130.05799241 317.78032528 -166.27587891 295.97216797 C-175.02891652 290.51360611 -183.42168035 284.67406421 -191.27587891 277.97216797 C-192.07123047 277.29927734 -192.86658203 276.62638672 -193.68603516 275.93310547 C-213.53496333 258.63213797 -213.53496333 258.63213797 -218.58837891 248.28466797 C-220.04692574 245.42159455 -221.56342243 243.16339878 -223.46337891 240.59716797 C-230.98578599 229.99886138 -235.8392855 218.45959154 -239.27587891 205.97216797 C-239.59814453 205.05048828 -239.92041016 204.12880859 -240.25244141 203.17919922 C-243.65239968 192.52513149 -245.32586736 181.12909286 -246.52587891 170.03466797 C-246.60580078 169.31577393 -246.68572266 168.59687988 -246.76806641 167.85620117 C-247.85329985 156.73632651 -247.29772438 146.03909416 -245.46337891 135.03466797 C-245.27743164 133.89078613 -245.09148437 132.7469043 -244.89990234 131.56835938 C-244.37192165 128.36719145 -243.82662059 125.16948453 -243.27587891 121.97216797 C-243.15873535 121.25883301 -243.0415918 120.54549805 -242.92089844 119.81054688 C-239.99801167 102.23962984 -233.67508486 82.198296 -224.27587891 66.97216797 C-223.68677734 65.99248047 -223.09767578 65.01279297 -222.49072266 64.00341797 C-203.20529299 32.19546461 -179.18723467 8.60212426 -145.27587891 -7.02783203 C-144.15681152 -7.54676025 -144.15681152 -7.54676025 -143.01513672 -8.07617188 C-97.40371448 -28.81299026 -43.18843143 -24.53261678 0 0 Z " fill="#F3F3F3" transform="translate(340.27587890625,97.02783203125)"/>
<path d="M0 0 C26 0 26 0 35 1 C35 1.33 35 1.66 35 2 C23.78 1.67 12.56 1.34 1 1 C1.0407666 4.38233887 1.0815332 7.76467773 1.12353516 11.24951172 C1.25648024 22.40135796 1.37837642 33.55330501 1.49477577 44.70533562 C1.56558355 51.4694847 1.64017953 58.23355273 1.72363281 64.99755859 C1.80409814 71.52024248 1.87408716 78.04298917 1.93757248 84.56586075 C1.96357695 87.059479 1.99314397 89.55306263 2.02626419 92.04659653 C2.07191198 95.52827426 2.10510497 99.00985776 2.13525391 102.49169922 C2.1517952 103.53179138 2.16833649 104.57188354 2.18537903 105.64349365 C2.19104385 106.58862823 2.19670868 107.53376282 2.20254517 108.50753784 C2.2117631 109.33162077 2.22098103 110.1557037 2.23047829 111.00475883 C2 113 2 113 0 115 C-2.59790039 115.21118164 -2.59790039 115.21118164 -5.84765625 115.16015625 C-7.59079102 115.1437207 -7.59079102 115.1437207 -9.36914062 115.12695312 C-10.58794922 115.10568359 -11.80675781 115.08441406 -13.0625 115.0625 C-15.4699945 115.02823413 -17.87755189 114.99805574 -20.28515625 114.97265625 C-21.89209351 114.94570679 -21.89209351 114.94570679 -23.53149414 114.91821289 C-25.94449716 114.71672922 -25.94449716 114.71672922 -27 116 C-28.52519276 115.91062197 -30.04681929 115.75462854 -31.5625 115.5625 C-32.38878906 115.46066406 -33.21507812 115.35882813 -34.06640625 115.25390625 C-35.02353516 115.12822266 -35.02353516 115.12822266 -36 115 C-35.01 114.01 -35.01 114.01 -34 113 C-22.78 113 -11.56 113 0 113 C0 75.71 0 38.42 0 0 Z " fill="#7A7C7C" transform="translate(225,214)"/>
<path d="M0 0 C1.49249268 0.01571045 1.49249268 0.01571045 3.01513672 0.03173828 C4.6296875 0.04140625 4.6296875 0.04140625 6.27685547 0.05126953 C7.40478516 0.06802734 8.53271484 0.08478516 9.69482422 0.10205078 C11.39832031 0.11558594 11.39832031 0.11558594 13.13623047 0.12939453 C15.94763721 0.1530198 18.7586272 0.18596065 21.56982422 0.22705078 C21.56982422 0.55705078 21.56982422 0.88705078 21.56982422 1.22705078 C20.42642578 1.28763672 19.28302734 1.34822266 18.10498047 1.41064453 C16.61408117 1.49503506 15.12319647 1.5796838 13.63232422 1.66455078 C12.50020508 1.72352539 12.50020508 1.72352539 11.34521484 1.78369141 C7.65038234 1.66743102 7.65038234 1.66743102 4.56982422 3.22705078 C3.04463146 3.13767276 1.52300493 2.98167932 0.00732422 2.78955078 C-1.23210937 2.63679688 -1.23210937 2.63679688 -2.49658203 2.48095703 C-3.13466797 2.39716797 -3.77275391 2.31337891 -4.43017578 2.22705078 C-2.43017578 0.22705078 -2.43017578 0.22705078 0 0 Z " fill="#9EA19E" transform="translate(193.43017578125,326.77294921875)"/>
<path d="M0 0 C0.33 0.66 0.66 1.32 1 2 C0.34 1.67 -0.32 1.34 -1 1 C-0.67 0.67 -0.34 0.34 0 0 Z " fill="#333333" transform="translate(153,158)"/>
<path d="M0 0 C0.33 0.66 0.66 1.32 1 2 C0.34 1.67 -0.32 1.34 -1 1 C-0.67 0.67 -0.34 0.34 0 0 Z " fill="#010102" transform="translate(152,106)"/>
<path d="" fill="#323031" transform="translate(0,0)"/>
<path d="" fill="#3E3E3E" transform="translate(0,0)"/>
<path d="" fill="#2B2B2D" transform="translate(0,0)"/>
<path d="" fill="#41413F" transform="translate(0,0)"/>
<path d="" fill="#272528" transform="translate(0,0)"/>
<path d="" fill="#41413F" transform="translate(0,0)"/>
<path d="" fill="#3E3C41" transform="translate(0,0)"/>
<path d="" fill="#403E41" transform="translate(0,0)"/>
<path d="" fill="#3C3A3B" transform="translate(0,0)"/>
<path d="" fill="#9B9B9B" transform="translate(0,0)"/>
<path d="" fill="#969696" transform="translate(0,0)"/>
<path d="" fill="#3C3A3B" transform="translate(0,0)"/>
<path d="" fill="#9B9B9B" transform="translate(0,0)"/>
<path d="" fill="#3D3B3C" transform="translate(0,0)"/>
<path d="" fill="#7E7E7E" transform="translate(0,0)"/>
<path d="" fill="#9E9E9E" transform="translate(0,0)"/>
<path d="" fill="#A2A2A2" transform="translate(0,0)"/>
<path d="" fill="#515151" transform="translate(0,0)"/>
<path d="" fill="#B4B4B4" transform="translate(0,0)"/>
<path d="" fill="#A9A9A7" transform="translate(0,0)"/>
<path d="" fill="#B0B0AE" transform="translate(0,0)"/>
<path d="" fill="#B4B4B4" transform="translate(0,0)"/>
<path d="" fill="#B2B2B2" transform="translate(0,0)"/>
<path d="" fill="#ADADAF" transform="translate(0,0)"/>
<path d="" fill="#565656" transform="translate(0,0)"/>
<path d="" fill="#ABABAD" transform="translate(0,0)"/>
<path d="" fill="#A9A9AB" transform="translate(0,0)"/>
<path d="" fill="#38393D" transform="translate(0,0)"/>
<path d="" fill="#383838" transform="translate(0,0)"/>
<path d="" fill="#7F7D7E" transform="translate(0,0)"/>
<path d="" fill="#646466" transform="translate(0,0)"/>
<path d="" fill="#5C5C5E" transform="translate(0,0)"/>
<path d="" fill="#666467" transform="translate(0,0)"/>
<path d="" fill="#969799" transform="translate(0,0)"/>
<path d="" fill="#373536" transform="translate(0,0)"/>
<path d="" fill="#383838" transform="translate(0,0)"/>
<path d="" fill="#353432" transform="translate(0,0)"/>
<path d="" fill="#323232" transform="translate(0,0)"/>
<path d="" fill="#DBDBDB" transform="translate(0,0)"/>
<path d="" fill="#2C2C2E" transform="translate(0,0)"/>
<path d="" fill="#323033" transform="translate(0,0)"/>
<path d="" fill="#363435" transform="translate(0,0)"/>
<path d="" fill="#2A2A2C" transform="translate(0,0)"/>
<path d="" fill="#2C2C2E" transform="translate(0,0)"/>
<path d="" fill="#323031" transform="translate(0,0)"/>
<path d="" fill="#DDDDDD" transform="translate(0,0)"/>
<path d="" fill="#2B2B2D" transform="translate(0,0)"/>
<path d="" fill="#DBDDDC" transform="translate(0,0)"/>
<path d="" fill="#DBDDDC" transform="translate(0,0)"/>
<path d="" fill="#DDDDDD" transform="translate(0,0)"/>
<path d="" fill="#D9DBDA" transform="translate(0,0)"/>
<path d="" fill="#DADCDB" transform="translate(0,0)"/>
<path d="" fill="#D8D8D8" transform="translate(0,0)"/>
<path d="" fill="#DADADA" transform="translate(0,0)"/>
<path d="" fill="#DBDBDB" transform="translate(0,0)"/>
<path d="" fill="#D8DAD9" transform="translate(0,0)"/>
<path d="" fill="#DADCDB" transform="translate(0,0)"/>
<path d="" fill="#D6D8D7" transform="translate(0,0)"/>
<path d="" fill="#D7D9D8" transform="translate(0,0)"/>
</svg>
