<svg fill="none" xmlns="http://www.w3.org/2000/svg" viewBox="0 0 144 60" class="league-logo"><g filter="url(#League_TextLogo_svg__filter0_d_3391_1448)"><path d="M132.471 39.358c-2.312-.59-4.307-1.088-4.307-2.992 0-1.496 1.133-2.448 2.947-2.448 1.677-.09 3.218 1.043 3.536 2.72l4.533-2.176c-1.224-2.992-4.171-4.805-7.933-4.805-4.896 0-8.296 2.992-8.296 7.253 0 5.213 3.763 6.21 7.117 7.072 2.357.589 4.352 1.133 4.352 3.082 0 1.632-1.315 2.675-3.309 2.675-1.995 0-3.672-1.088-4.125-2.72l-4.534 2.176c1.27 2.992 4.488 4.805 8.477 4.805 5.304 0 8.704-2.947 8.704-7.57 0-5.259-3.989-6.256-7.162-7.072zm7.525-30.78v2.402h-3.853v2.267h3.354l-.634 2.312h-2.72v3.58h-2.63V8.578h6.483zm-13.101 2.447a2.94 2.94 0 012.946 2.947 2.94 2.94 0 01-2.946 2.947 2.941 2.941 0 01-2.947-2.947 2.941 2.941 0 012.947-2.947zm0 8.432c3.037 0 5.485-2.493 5.485-5.53 0-3.038-2.493-5.486-5.53-5.486-3.038 0-5.486 2.494-5.486 5.486 0 3.082 2.494 5.575 5.531 5.53zM78.571 53.32h4.896V37.862L94.573 53.32h5.123V29.793h-4.941v15.685l-10.97-15.685h-6.347l1.133 2.312V53.32zm37.716-8.976c-.68 1.678-2.04 2.992-3.672 3.718a6.937 6.937 0 01-2.72.544h-2.81V34.552h2.81c.952 0 1.859.18 2.72.544 1.678.68 2.992 2.04 3.672 3.717.726 1.813.726 3.762 0 5.53zm-1.632-13.6c-1.496-.589-3.082-.906-4.669-.997h-8.024v23.528h8.024c3.173 0 6.211-1.179 8.522-3.355 1.088-1.043 1.995-2.312 2.584-3.717a11.54 11.54 0 00-2.584-12.965c-1.133-1.043-2.402-1.904-3.853-2.493zM35.37 53.32H21.362V29.793H35.37v4.578h-8.885v4.76h8.114l-1.224 4.443h-6.89v5.168l8.885.045v4.533zm32.004-18.949h8.885v-4.578H62.297V53.32h13.962v-4.533l-8.885-.045v-5.168h6.89l1.225-4.443h-8.115v-4.76zm17.77-13.78c-.453-1.315-.68-2.675-.635-4.035L84.6 2.05h5.077l-.045 14.28c0 1.586.363 2.855 1.088 3.762 1.723 1.813 4.624 1.858 6.392.09l.09-.09c.771-.907 1.134-2.176 1.134-3.763l.045-14.325h5.168l-.091 14.643c0 1.36-.181 2.72-.634 4.034-.408 1.133-1.088 2.176-1.904 3.083-.862.86-1.859 1.54-2.992 1.949a11.765 11.765 0 01-7.979-.046c-1.133-.453-2.13-1.087-2.946-1.994a8.51 8.51 0 01-1.859-3.083zm-25.476-1.814a12.168 12.168 0 01-.952-4.714c0-1.632.362-3.219.997-4.715a12.011 12.011 0 012.675-3.853C63.52 4.362 64.88 3.5 66.33 2.91a11.488 11.488 0 014.806-.907c2.22-.045 4.442.544 6.391 1.632a10.712 10.712 0 014.262 4.488L77.166 10.3a6.51 6.51 0 00-2.448-2.63c-1.088-.634-2.357-.906-3.627-.906-.952 0-1.949.181-2.81.544a6.616 6.616 0 00-2.267 1.587c-.68.68-1.178 1.496-1.541 2.357a7.667 7.667 0 00-.046 5.757c.68 1.768 2.086 3.219 3.808 3.99.907.407 1.859.634 2.856.589a6.866 6.866 0 004.08-1.224c1.088-.77 1.859-1.95 2.176-3.264h-8.386l2.085-4.261h11.696c.045.906 0 2.855-.046 3.263a13.425 13.425 0 01-.816 3.22c-1.133 2.81-3.354 4.986-6.165 6.119-4.624 1.858-9.882.77-13.418-2.765-1.133-1.134-1.995-2.448-2.63-3.899zM5.178 23.22V4.498L4 2.05h6.256v18.994h9.384l-1.315 4.623H4l1.179-2.447zm0 27.652V32.15L4 29.702h6.256v18.994h9.384l-1.315 4.624H4l1.179-2.448zM35.37 25.668H21.362V2.14H35.37V6.72h-8.885v4.76h8.114l-1.224 4.442h-6.89v5.123l8.885.045v4.579zm84.408 0h-13.962V2.14h14.007V6.72h-8.885v4.76h8.114l-1.223 4.442h-6.891v5.123l8.885.045v4.579h-.045zm-70.99-17l2.947 7.933h-6.03l3.083-7.933zm-6.573 17l1.768-4.579h9.429l1.813 4.579h5.304L51.055 2.05H43.8l1.542 3.082-8.341 20.536h5.213zm3.762 28.015c.862.181 1.723.272 2.63.272 1.586.045 3.173-.272 4.669-.862 2.81-1.133 5.032-3.309 6.165-6.12.408-1.042.68-2.13.816-3.218.09-1.088.09-2.176.045-3.31H48.607v.046l-2.086 4.261h8.341c-.317 1.315-1.087 2.493-2.175 3.264-1.18.861-2.584 1.27-4.035 1.224-.453 0-.861-.045-1.315-.136l-1.042-.272c-.182-.045-.318-.136-.499-.181-1.723-.77-3.128-2.176-3.808-3.99a7.784 7.784 0 01.045-5.802 8.15 8.15 0 011.542-2.357c.634-.68 1.45-1.179 2.312-1.541a7.559 7.559 0 012.81-.544 6.752 6.752 0 013.627.906 6.51 6.51 0 012.448 2.63l4.624-2.176a10.442 10.442 0 00-4.262-4.488c-1.949-1.088-4.125-1.632-6.391-1.632-3.264-.046-6.392 1.224-8.75 3.536a12.011 12.011 0 00-2.674 3.853c-1.315 2.992-1.315 6.437-.045 9.429a13.286 13.286 0 002.584 3.898c.997.998 2.175 1.814 3.445 2.448.893.404 1.781.726 2.674.862z" fill="#fff"></path></g><defs><filter id="League_TextLogo_svg__filter0_d_3391_1448" x="0" y="0" width="143.996" height="60" filterUnits="userSpaceOnUse" color-interpolation-filters="sRGB"><feFlood flood-opacity="0" result="BackgroundImageFix"></feFlood><feColorMatrix in="SourceAlpha" values="0 0 0 0 0 0 0 0 0 0 0 0 0 0 0 0 0 0 127 0" result="hardAlpha"></feColorMatrix><feOffset dy="2"></feOffset><feGaussianBlur stdDeviation="2"></feGaussianBlur><feComposite in2="hardAlpha" operator="out"></feComposite><feColorMatrix values="0 0 0 0 0 0 0 0 0 0 0 0 0 0 0 0 0 0 0.4 0"></feColorMatrix><feBlend in2="BackgroundImageFix" result="effect1_dropShadow_3391_1448"></feBlend><feBlend in="SourceGraphic" in2="effect1_dropShadow_3391_1448" result="shape"></feBlend></filter></defs></svg>