<?xml version="1.0" encoding="UTF-8"?>
<!DOCTYPE svg PUBLIC "-//W3C//DTD SVG 1.1//EN" "http://www.w3.org/Graphics/SVG/1.1/DTD/svg11.dtd">
<svg xmlns="http://www.w3.org/2000/svg" version="1.1" width="902px" height="632px" style="shape-rendering:geometricPrecision; text-rendering:geometricPrecision; image-rendering:optimizeQuality; fill-rule:evenodd; clip-rule:evenodd" xmlns:xlink="http://www.w3.org/1999/xlink">
<g><path style="opacity:1" fill="#009b3a" d="M -0.5,-0.5 C 300.167,-0.5 600.833,-0.5 901.5,-0.5C 901.5,210.167 901.5,420.833 901.5,631.5C 600.833,631.5 300.167,631.5 -0.5,631.5C -0.5,420.833 -0.5,210.167 -0.5,-0.5 Z"/></g>
<g><path style="opacity:1" fill="#fdde02" d="M 449.5,76.5 C 574.416,155.634 699.083,235.3 823.5,315.5C 699.298,395.43 574.965,475.097 450.5,554.5C 325.654,475.581 201.321,395.914 77.5,315.5C 82.6191,311.434 87.9524,307.6 93.5,304C 212.318,228.399 330.985,152.566 449.5,76.5 Z"/></g>
<g><path style="opacity:1" fill="#5b6332" d="M 431.5,158.5 C 443.326,157.34 455.326,157.174 467.5,158C 469.058,158.21 470.391,158.71 471.5,159.5C 458.185,158.667 444.851,158.334 431.5,158.5 Z"/></g>
<g><path style="opacity:1" fill="#022775" d="M 431.5,158.5 C 444.851,158.334 458.185,158.667 471.5,159.5C 472.833,159.5 474.167,159.5 475.5,159.5C 475.611,160.117 475.944,160.617 476.5,161C 480.114,161.936 483.78,162.436 487.5,162.5C 493.314,163.703 498.981,165.37 504.5,167.5C 542.324,181.804 571.158,206.804 591,242.5C 593.644,248.459 596.311,254.459 599,260.5C 599.494,262.134 599.66,263.801 599.5,265.5C 599.783,269.954 601.116,273.954 603.5,277.5C 604.787,280.698 605.453,284.031 605.5,287.5C 605.41,290.152 606.076,292.485 607.5,294.5C 607.5,308.833 607.5,323.167 607.5,337.5C 573.803,310.474 536.803,288.808 496.5,272.5C 498.048,269.049 500.048,268.716 502.5,271.5C 503.452,270.467 503.452,269.3 502.5,268C 502.759,266.739 503.426,265.739 504.5,265C 503.207,264.51 501.873,264.343 500.5,264.5C 499.833,259.167 499.167,259.167 498.5,264.5C 497.127,264.343 495.793,264.51 494.5,265C 497.239,267.622 496.905,269.788 493.5,271.5C 436.871,251.228 378.538,243.895 318.5,249.5C 311.784,250.458 309.451,247.791 311.5,241.5C 326.204,213.294 347.538,191.461 375.5,176C 393.223,167.036 411.89,161.203 431.5,158.5 Z"/></g>
<g><path style="opacity:1" fill="#2c3c53" d="M 475.5,159.5 C 479.462,160.376 483.462,161.042 487.5,161.5C 487.5,161.833 487.5,162.167 487.5,162.5C 483.78,162.436 480.114,161.936 476.5,161C 475.944,160.617 475.611,160.117 475.5,159.5 Z"/></g>
<g><path style="opacity:1" fill="#c7ba36" d="M 487.5,162.5 C 487.5,162.167 487.5,161.833 487.5,161.5C 491.819,162.035 496.152,162.535 500.5,163C 502.644,163.792 503.977,165.292 504.5,167.5C 498.981,165.37 493.314,163.703 487.5,162.5 Z"/></g>
<g><path style="opacity:1" fill="#363e68" d="M 311.5,241.5 C 309.451,247.791 311.784,250.458 318.5,249.5C 315.154,250.271 311.654,250.938 308,251.5C 307.235,251.43 306.735,251.097 306.5,250.5C 307.802,247.223 309.469,244.223 311.5,241.5 Z"/></g>
<g><path style="opacity:1" fill="#374048" d="M 599.5,265.5 C 600.117,265.611 600.617,265.944 601,266.5C 601.852,270.189 602.685,273.856 603.5,277.5C 601.116,273.954 599.783,269.954 599.5,265.5 Z"/></g>
<g><path style="opacity:1" fill="#022775" d="M 600.5,364.5 C 581.048,419.043 543.382,453.71 487.5,468.5C 484.212,468.927 481.212,468.26 478.5,466.5C 477.5,467.5 476.5,468.5 475.5,469.5C 471.737,469.896 468.403,470.896 465.5,472.5C 451.8,473.957 438.133,473.623 424.5,471.5C 422.485,470.076 420.152,469.41 417.5,469.5C 393.444,464.565 371.777,454.565 352.5,439.5C 326.654,418.579 308.987,392.246 299.5,360.5C 299.741,358.102 299.074,356.102 297.5,354.5C 296.113,348.23 295.113,341.896 294.5,335.5C 294.5,321.833 294.5,308.167 294.5,294.5C 294.993,292.194 295.326,289.861 295.5,287.5C 295.036,282.97 296.036,278.97 298.5,275.5C 411.622,258.615 511.622,286.782 598.5,360C 600.037,361.11 600.703,362.61 600.5,364.5 Z"/></g>
<g><path style="opacity:1" fill="#f0f7f5" d="M 607.5,337.5 C 604.888,346.511 602.555,355.511 600.5,364.5C 600.703,362.61 600.037,361.11 598.5,360C 511.622,286.782 411.622,258.615 298.5,275.5C 298.67,273.152 299.003,270.818 299.5,268.5C 302.038,262.414 304.371,256.414 306.5,250.5C 306.735,251.097 307.235,251.43 308,251.5C 311.654,250.938 315.154,250.271 318.5,249.5C 378.538,243.895 436.871,251.228 493.5,271.5C 496.905,269.788 497.239,267.622 494.5,265C 495.793,264.51 497.127,264.343 498.5,264.5C 499.167,259.167 499.833,259.167 500.5,264.5C 501.873,264.343 503.207,264.51 504.5,265C 503.426,265.739 502.759,266.739 502.5,268C 503.452,269.3 503.452,270.467 502.5,271.5C 500.048,268.716 498.048,269.049 496.5,272.5C 536.803,288.808 573.803,310.474 607.5,337.5 Z"/></g>
<g><path style="opacity:1" fill="#319f4f" d="M 447.5,262.5 C 451.319,262.605 454.986,263.438 458.5,265C 461.07,267.615 461.07,270.282 458.5,273C 455.151,273.388 451.817,273.221 448.5,272.5C 448.617,274.484 447.95,276.15 446.5,277.5C 446.167,276.5 445.833,275.5 445.5,274.5C 447.026,270.636 447.692,266.636 447.5,262.5 Z"/></g>
<g><path style="opacity:1" fill="#39a355" d="M 418.5,257.5 C 422.119,258.244 425.785,258.577 429.5,258.5C 429.5,259.5 429.5,260.5 429.5,261.5C 426.813,261.336 424.146,261.503 421.5,262C 423.219,263.057 425.053,263.89 427,264.5C 427.432,265.6 426.932,266.267 425.5,266.5C 423.547,265.844 421.547,265.511 419.5,265.5C 419.5,266.833 419.5,268.167 419.5,269.5C 422.5,269.5 425.5,269.5 428.5,269.5C 428.5,270.5 428.5,271.5 428.5,272.5C 424.5,272.167 420.5,271.833 416.5,271.5C 416.779,266.773 417.446,262.107 418.5,257.5 Z"/></g>
<g><path style="opacity:1" fill="#e4faec" d="M 450.5,266.5 C 452.527,266.338 454.527,266.505 456.5,267C 457.337,268.011 457.67,269.178 457.5,270.5C 455.409,270.682 453.409,270.348 451.5,269.5C 450.614,268.675 450.281,267.675 450.5,266.5 Z"/></g>
<g><path style="opacity:1" fill="#2e9a4e" d="M 366.5,251.5 C 370.833,251.5 375.167,251.5 379.5,251.5C 379.5,252.5 379.5,253.5 379.5,254.5C 376.167,254.5 372.833,254.5 369.5,254.5C 369.5,255.5 369.5,256.5 369.5,257.5C 372.167,257.5 374.833,257.5 377.5,257.5C 377.5,258.5 377.5,259.5 377.5,260.5C 374.833,260.5 372.167,260.5 369.5,260.5C 369.5,261.833 369.5,263.167 369.5,264.5C 372.898,264.18 376.232,264.513 379.5,265.5C 375.217,266.492 370.884,266.826 366.5,266.5C 366.5,261.5 366.5,256.5 366.5,251.5 Z"/></g>
<g><path style="opacity:1" fill="#309f4e" d="M 312.5,254.5 C 320.011,254.514 322.844,258.181 321,265.5C 317.961,269.839 314.295,270.506 310,267.5C 308.632,264.262 308.299,260.928 309,257.5C 309.985,256.186 311.152,255.186 312.5,254.5 Z"/></g>
<g><path style="opacity:1" fill="#349f53" d="M 386.5,252.5 C 388.144,252.286 389.644,252.62 391,253.5C 391.633,263.349 393.133,263.682 395.5,254.5C 396.689,253.571 398.022,253.238 399.5,253.5C 399.5,258.5 399.5,263.5 399.5,268.5C 398.5,268.5 397.5,268.5 396.5,268.5C 396.664,265.813 396.497,263.146 396,260.5C 395.548,264.138 393.714,266.472 390.5,267.5C 389.213,258.286 388.546,258.286 388.5,267.5C 387.5,267.5 386.5,267.5 385.5,267.5C 385.751,262.493 386.084,257.493 386.5,252.5 Z"/></g>
<g><path style="opacity:1" fill="#3ea658" d="M 327.5,252.5 C 331.182,252.335 334.848,252.501 338.5,253C 339.894,253.956 340.561,255.289 340.5,257C 339.167,259.667 339.167,262.333 340.5,265C 340.167,265.833 339.833,266.667 339.5,267.5C 337.783,266.332 337.116,264.665 337.5,262.5C 335.5,262.5 333.5,262.5 331.5,262.5C 332.401,266.241 331.068,268.241 327.5,268.5C 327.5,263.167 327.5,257.833 327.5,252.5 Z"/></g>
<g><path style="opacity:1" fill="#eef9f2" d="M 312.5,257.5 C 317.459,256.628 319.625,258.628 319,263.5C 316.966,266.859 314.632,267.192 312,264.5C 311.297,262.071 311.463,259.738 312.5,257.5 Z"/></g>
<g><path style="opacity:1" fill="#f6fcfa" d="M 330.5,255.5 C 332.833,255.5 335.167,255.5 337.5,255.5C 337.5,256.5 337.5,257.5 337.5,258.5C 335.167,258.5 332.833,258.5 330.5,258.5C 330.5,257.5 330.5,256.5 330.5,255.5 Z"/></g>
<g><path style="opacity:1" fill="#2a9c4a" d="M 347.5,251.5 C 358.896,250.046 362.563,254.546 358.5,265C 354.974,266.337 351.308,266.837 347.5,266.5C 347.5,261.5 347.5,256.5 347.5,251.5 Z"/></g>
<g><path style="opacity:1" fill="#eaf9ef" d="M 349.5,254.5 C 356.621,253.449 358.954,256.283 356.5,263C 354.19,263.497 351.857,263.663 349.5,263.5C 349.5,260.5 349.5,257.5 349.5,254.5 Z"/></g>
<g><path style="opacity:1" fill="#32a150" d="M 467.5,267.5 C 471.673,267.419 475.339,268.752 478.5,271.5C 479.982,274.257 479.482,276.59 477,278.5C 475.31,286.274 474.143,286.274 473.5,278.5C 471.5,278.167 469.5,277.833 467.5,277.5C 467.833,280.5 466.5,281.833 463.5,281.5C 465.421,277.063 466.754,272.397 467.5,267.5 Z"/></g>
<g><path style="opacity:1" fill="#edf8f3" d="M 469.5,271.5 C 471.527,271.338 473.527,271.505 475.5,272C 476.337,273.011 476.67,274.178 476.5,275.5C 474.409,275.682 472.409,275.348 470.5,274.5C 469.614,273.675 469.281,272.675 469.5,271.5 Z"/></g>
<g><path style="opacity:1" fill="#2d9d48" d="M 487.5,275.5 C 494.87,274.395 498.037,277.395 497,284.5C 494.928,289.143 491.428,290.643 486.5,289C 482.285,284.134 482.618,279.634 487.5,275.5 Z"/></g>
<g><path style="opacity:1" fill="#ecfaf2" d="M 488.5,278.5 C 493.675,277.507 495.509,279.507 494,284.5C 490.474,288.766 487.974,288.266 486.5,283C 486.519,281.167 487.185,279.667 488.5,278.5 Z"/></g>
<g><path style="opacity:1" fill="#d4e0ef" d="M 320.5,282.5 C 322.728,283.593 325.061,284.593 327.5,285.5C 326.263,286.281 325.263,287.281 324.5,288.5C 325.428,289.768 325.595,291.101 325,292.5C 323.267,290.398 321.267,290.065 319,291.5C 318.837,289.324 318.004,287.491 316.5,286C 317.793,285.51 319.127,285.343 320.5,285.5C 320.5,284.5 320.5,283.5 320.5,282.5 Z"/></g>
<g><path style="opacity:1" fill="#2e9e4b" d="M 506.5,282.5 C 511.136,281.812 514.136,283.645 515.5,288C 515.167,288.5 514.833,289 514.5,289.5C 512.857,287.846 511.024,286.513 509,285.5C 505.387,286.534 504.053,288.868 505,292.5C 506.11,294.037 507.61,294.703 509.5,294.5C 509.823,289.759 511.49,289.425 514.5,293.5C 514.047,295.565 513.047,297.232 511.5,298.5C 504.511,298.017 501.344,294.35 502,287.5C 503.025,285.313 504.525,283.646 506.5,282.5 Z"/></g>
<g><path style="opacity:1" fill="#8c8e43" d="M 295.5,287.5 C 295.326,289.861 294.993,292.194 294.5,294.5C 294.167,294.5 293.833,294.5 293.5,294.5C 293.41,291.848 294.076,289.515 295.5,287.5 Z"/></g>
<g><path style="opacity:1" fill="#8c8e54" d="M 605.5,287.5 C 606.924,289.515 607.59,291.848 607.5,294.5C 606.076,292.485 605.41,290.152 605.5,287.5 Z"/></g>
<g><path style="opacity:1" fill="#2f9e4c" d="M 523.5,288.5 C 526.758,289.908 529.924,291.574 533,293.5C 534.297,297.154 533.297,299.821 530,301.5C 529.964,303.941 529.131,305.941 527.5,307.5C 527.308,305.195 526.974,302.862 526.5,300.5C 525.167,299.833 523.833,299.167 522.5,298.5C 521.167,299.833 519.833,301.167 518.5,302.5C 518.167,301.833 517.833,301.167 517.5,300.5C 519.495,296.51 521.495,292.51 523.5,288.5 Z"/></g>
<g><path style="opacity:1" fill="#ecf9f3" d="M 524.5,292.5 C 527.801,292.792 529.801,294.459 530.5,297.5C 528.139,297.326 525.806,296.993 523.5,296.5C 523.433,295.041 523.766,293.708 524.5,292.5 Z"/></g>
<g><path style="opacity:1" fill="#2e9e4d" d="M 540.5,297.5 C 544.752,299.297 548.752,301.63 552.5,304.5C 551.277,305.614 549.944,305.781 548.5,305C 546.453,303.927 544.453,302.761 542.5,301.5C 541.167,302.5 541.167,303.5 542.5,304.5C 544.389,305.604 546.055,306.937 547.5,308.5C 547,308.833 546.5,309.167 546,309.5C 543.78,307.807 541.28,306.807 538.5,306.5C 538.238,307.978 538.571,309.311 539.5,310.5C 542.047,311.934 544.381,313.6 546.5,315.5C 541.787,315.65 537.787,313.817 534.5,310C 536.745,305.93 538.745,301.764 540.5,297.5 Z"/></g>
<g><path style="opacity:1" fill="#c7d2ea" d="M 492.5,303.5 C 495.851,305.154 496.685,307.488 495,310.5C 494,309.167 493,309.167 492,310.5C 491.56,308.924 490.727,307.59 489.5,306.5C 490.993,305.859 491.993,304.859 492.5,303.5 Z"/></g>
<g><path style="opacity:1" fill="#2a9d4a" d="M 557.5,309.5 C 560.564,309.144 563.231,309.977 565.5,312C 567.155,313.444 567.822,315.278 567.5,317.5C 566.5,317.5 565.5,317.5 564.5,317.5C 564.454,313.765 562.787,312.432 559.5,313.5C 561.995,315.659 563.661,318.326 564.5,321.5C 563.514,325.147 561.181,326.314 557.5,325C 556,323.5 554.5,322 553,320.5C 552.219,319.056 552.386,317.723 553.5,316.5C 554.92,318.22 556.253,320.054 557.5,322C 558.448,322.483 559.448,322.649 560.5,322.5C 559.121,319.259 557.455,316.093 555.5,313C 555.978,311.697 556.645,310.531 557.5,309.5 Z"/></g>
<g><path style="opacity:1" fill="#363b47" d="M 293.5,294.5 C 293.833,294.5 294.167,294.5 294.5,294.5C 294.5,308.167 294.5,321.833 294.5,335.5C 292.304,322.022 291.971,308.356 293.5,294.5 Z"/></g>
<g><path style="opacity:1" fill="#2c9d49" d="M 574.5,319.5 C 580.216,320.195 582.883,323.195 582.5,328.5C 581.05,327.345 580.05,325.845 579.5,324C 578.056,323.219 576.723,323.386 575.5,324.5C 577.192,326.359 578.692,328.359 580,330.5C 580.381,336.392 577.881,337.892 572.5,335C 569.603,333.285 568.269,330.785 568.5,327.5C 569.5,327.5 570.5,327.5 571.5,327.5C 571.33,330.491 572.663,332.491 575.5,333.5C 575.833,333 576.167,332.5 576.5,332C 575.118,329.306 573.785,326.639 572.5,324C 572.519,322.167 573.185,320.667 574.5,319.5 Z"/></g>
<g><path style="opacity:1" fill="#cfdce9" d="M 389.5,317.5 C 391.447,318.473 393.447,319.473 395.5,320.5C 394.045,322.22 393.212,324.22 393,326.5C 391.806,324.475 390.306,324.141 388.5,325.5C 387.756,324.009 387.09,322.509 386.5,321C 387.448,320.517 388.448,320.351 389.5,320.5C 389.5,319.5 389.5,318.5 389.5,317.5 Z"/></g>
<g><path style="opacity:1" fill="#d8e1ee" d="M 449.5,336.5 C 451.048,336.821 451.715,337.821 451.5,339.5C 452.552,339.351 453.552,339.517 454.5,340C 453.91,341.509 453.244,343.009 452.5,344.5C 450.694,343.141 449.194,343.475 448,345.5C 447.749,343.567 447.249,341.734 446.5,340C 447.448,339.517 448.448,339.351 449.5,339.5C 449.5,338.5 449.5,337.5 449.5,336.5 Z"/></g>
<g><path style="opacity:1" fill="#d1e3f5" d="M 350.5,341.5 C 352.104,342.287 352.771,343.62 352.5,345.5C 348.87,344.938 348.203,343.605 350.5,341.5 Z"/></g>
<g><path style="opacity:1" fill="#329f4d" d="M 590.5,332.5 C 600.838,334.665 602.171,339.498 594.5,347C 586.668,347.821 583.835,344.321 586,336.5C 587.397,334.93 588.897,333.596 590.5,332.5 Z"/></g>
<g><path style="opacity:1" fill="#e6f7ed" d="M 590.5,335.5 C 595.213,335.468 596.713,337.801 595,342.5C 591.507,345.502 589.007,344.835 587.5,340.5C 588.092,338.577 589.092,336.911 590.5,335.5 Z"/></g>
<g><path style="opacity:1" fill="#d9e4f1" d="M 334.5,347.5 C 336.026,348.105 337.026,349.271 337.5,351C 338.833,351.333 340.167,351.667 341.5,352C 340.272,352.779 339.272,353.779 338.5,355C 339.674,358.973 338.674,359.473 335.5,356.5C 332.326,359.473 331.326,358.973 332.5,355C 332.241,353.739 331.574,352.739 330.5,352C 331.793,351.51 333.127,351.343 334.5,351.5C 334.5,350.167 334.5,348.833 334.5,347.5 Z"/></g>
<g><path style="opacity:1" fill="#e5edf3" d="M 468.5,350.5 C 469.404,351.209 469.737,352.209 469.5,353.5C 470.552,353.351 471.552,353.517 472.5,354C 471.91,355.509 471.244,357.009 470.5,358.5C 468.521,357.794 466.854,357.794 465.5,358.5C 466.859,356.694 466.525,355.194 464.5,354C 466.55,353.584 467.884,352.417 468.5,350.5 Z"/></g>
<g><path style="opacity:1" fill="#d2dcee" d="M 433.5,351.5 C 439.567,353.647 439.233,355.98 432.5,358.5C 432.968,356.887 432.301,355.387 430.5,354C 432.119,353.764 433.119,352.931 433.5,351.5 Z"/></g>
<g><path style="opacity:1" fill="#6d753b" d="M 297.5,354.5 C 299.074,356.102 299.741,358.102 299.5,360.5C 297.926,358.898 297.259,356.898 297.5,354.5 Z"/></g>
<g><path style="opacity:1" fill="#b5c0dc" d="M 441.5,363.5 C 443.912,363.694 444.912,365.027 444.5,367.5C 443.167,367.5 441.833,367.5 440.5,367.5C 440.433,366.041 440.766,364.708 441.5,363.5 Z"/></g>
<g><path style="opacity:1" fill="#c0cbe1" d="M 315.5,363.5 C 317.296,364.794 319.296,365.794 321.5,366.5C 320.045,368.22 319.212,370.22 319,372.5C 317.806,370.475 316.306,370.141 314.5,371.5C 313.752,369.668 312.752,368.001 311.5,366.5C 313.332,365.943 314.665,364.943 315.5,363.5 Z"/></g>
<g><path style="opacity:1" fill="#d9e3ee" d="M 367.5,364.5 C 369.048,364.821 369.715,365.821 369.5,367.5C 370.552,367.351 371.552,367.517 372.5,368C 371.751,369.734 371.251,371.567 371,373.5C 369.333,372.167 367.667,372.167 366,373.5C 365.837,371.324 365.004,369.491 363.5,368C 364.793,367.51 366.127,367.343 367.5,367.5C 367.5,366.5 367.5,365.5 367.5,364.5 Z"/></g>
<g><path style="opacity:1" fill="#dae5f0" d="M 560.5,365.5 C 561.799,367.692 563.799,369.025 566.5,369.5C 565.173,371.311 564.173,373.311 563.5,375.5C 561.833,374.167 560.167,374.167 558.5,375.5C 557.41,374.609 557.41,373.609 558.5,372.5C 557.737,371.281 556.737,370.281 555.5,369.5C 556.729,368.719 558.062,368.219 559.5,368C 560.252,367.329 560.586,366.496 560.5,365.5 Z"/></g>
<g><path style="opacity:1" fill="#bfc9e2" d="M 582.5,368.5 C 583.66,369.611 584.993,370.611 586.5,371.5C 586.023,372.931 585.357,374.264 584.5,375.5C 583.5,374.167 582.5,374.167 581.5,375.5C 580.643,374.264 579.977,372.931 579.5,371.5C 580.993,370.859 581.993,369.859 582.5,368.5 Z"/></g>
<g><path style="opacity:1" fill="#d7deee" d="M 566.5,380.5 C 568.048,380.821 568.715,381.821 568.5,383.5C 569.552,383.351 570.552,383.517 571.5,384C 570.91,385.509 570.244,387.009 569.5,388.5C 567.602,387.266 565.935,387.599 564.5,389.5C 563.895,388.413 564.228,387.246 565.5,386C 562.668,384.092 563.001,383.259 566.5,383.5C 566.5,382.5 566.5,381.5 566.5,380.5 Z"/></g>
<g><path style="opacity:1" fill="#d9e2f1" d="M 363.5,382.5 C 364.766,383.09 366.099,383.59 367.5,384C 366.123,386.308 364.123,387.808 361.5,388.5C 361.55,387.152 361.217,385.652 360.5,384C 361.737,383.768 362.737,383.268 363.5,382.5 Z"/></g>
<g><path style="opacity:1" fill="#e0ebf4" d="M 449.5,380.5 C 451.176,381.183 451.843,382.517 451.5,384.5C 452.873,384.343 454.207,384.51 455.5,385C 454.426,385.739 453.759,386.739 453.5,388C 454.674,391.973 453.674,392.473 450.5,389.5C 447.326,392.473 446.326,391.973 447.5,388C 447.241,386.739 446.574,385.739 445.5,385C 446.793,384.51 448.127,384.343 449.5,384.5C 449.5,383.167 449.5,381.833 449.5,380.5 Z"/></g>
<g><path style="opacity:1" fill="#dde7ef" d="M 386.5,393.5 C 388.104,394.287 388.771,395.62 388.5,397.5C 389.873,397.343 391.207,397.51 392.5,398C 390.615,400.078 389.949,402.245 390.5,404.5C 388.287,401.92 386.12,401.92 384,404.5C 383.405,403.101 383.572,401.768 384.5,400.5C 381.567,398.262 381.901,397.262 385.5,397.5C 385.433,396.041 385.766,394.708 386.5,393.5 Z"/></g>
<g><path style="opacity:1" fill="#d3deec" d="M 557.5,393.5 C 558.937,394.725 560.604,395.725 562.5,396.5C 561.137,397.893 560.304,399.559 560,401.5C 558.062,400.14 556.396,400.473 555,402.5C 554.405,401.101 554.572,399.768 555.5,398.5C 554.833,397.833 554.167,397.167 553.5,396.5C 555.332,395.943 556.665,394.943 557.5,393.5 Z"/></g>
<g><path style="opacity:1" fill="#cbd6e5" d="M 528.5,398.5 C 529.604,399.997 530.604,401.664 531.5,403.5C 531.167,404.167 530.833,404.833 530.5,405.5C 529.5,404.167 528.5,404.167 527.5,405.5C 526.368,403.01 526.701,400.676 528.5,398.5 Z"/></g>
<g><path style="opacity:1" fill="#c0cde7" d="M 484.5,400.5 C 486.084,401.382 487.751,402.215 489.5,403C 486.833,407.667 484.167,407.667 481.5,403C 483.119,402.764 484.119,401.931 484.5,400.5 Z"/></g>
<g><path style="opacity:1" fill="#dde6f2" d="M 544.5,402.5 C 545.683,403.504 547.016,404.338 548.5,405C 547.929,406.205 547.262,407.372 546.5,408.5C 545.268,407.855 543.935,407.689 542.5,408C 543.833,407 543.833,406 542.5,405C 543.756,404.583 544.423,403.75 544.5,402.5 Z"/></g>
<g><path style="opacity:1" fill="#dce8f6" d="M 510.5,404.5 C 511.683,405.504 513.016,406.338 514.5,407C 513.663,408.011 513.33,409.178 513.5,410.5C 510.755,410.627 508.755,409.46 507.5,407C 509.119,406.764 510.119,405.931 510.5,404.5 Z"/></g>
<g><path style="opacity:1" fill="#dbe8f5" d="M 528.5,413.5 C 530.048,413.821 530.715,414.821 530.5,416.5C 531.552,416.351 532.552,416.517 533.5,417C 532.91,418.509 532.244,420.009 531.5,421.5C 529.694,420.141 528.194,420.475 527,422.5C 526.749,420.567 526.249,418.734 525.5,417C 526.448,416.517 527.448,416.351 528.5,416.5C 528.5,415.5 528.5,414.5 528.5,413.5 Z"/></g>
<g><path style="opacity:1" fill="#c0cfe2" d="M 497.5,417.5 C 498.937,418.725 500.604,419.725 502.5,420.5C 501.137,421.893 500.304,423.559 500,425.5C 498.062,424.14 496.396,424.473 495,426.5C 494.316,425.216 494.483,424.049 495.5,423C 494.5,422.167 493.5,421.333 492.5,420.5C 494.544,419.935 496.21,418.935 497.5,417.5 Z"/></g>
<g><path style="opacity:1" fill="#dee8f6" d="M 528.5,430.5 C 529.683,431.504 531.016,432.338 532.5,433C 531.663,434.011 531.33,435.178 531.5,436.5C 528.755,436.627 526.755,435.46 525.5,433C 527.119,432.764 528.119,431.931 528.5,430.5 Z"/></g>
<g><path style="opacity:1" fill="#576c97" d="M 448.5,437.5 C 449.833,437.5 451.167,437.5 452.5,437.5C 452.5,438.833 452.5,440.167 452.5,441.5C 451.167,441.5 449.833,441.5 448.5,441.5C 448.5,440.167 448.5,438.833 448.5,437.5 Z"/></g>
<g><path style="opacity:1" fill="#5c6441" d="M 417.5,469.5 C 420.152,469.41 422.485,470.076 424.5,471.5C 421.848,471.59 419.515,470.924 417.5,469.5 Z"/></g>
<g><path style="opacity:1" fill="#2a3356" d="M 487.5,468.5 C 480.46,470.82 473.127,472.153 465.5,472.5C 468.403,470.896 471.737,469.896 475.5,469.5C 476.5,468.5 477.5,467.5 478.5,466.5C 481.212,468.26 484.212,468.927 487.5,468.5 Z"/></g>
</svg>
