<!-- <svg viewBox="0 0 24 24" fill="none" xmlns="http://www.w3.org/2000/svg"><g id="SVGRepo_bgCarrier" stroke-width="0"></g><g id="SVGRepo_tracerCarrier" stroke-linecap="round" stroke-linejoin="round"></g><g id="SVGRepo_iconCarrier"> <path d="M21.4086 9.35258C23.5305 10.5065 23.5305 13.4935 21.4086 14.6474L8.59662 21.6145C6.53435 22.736 4 21.2763 4 18.9671L4 5.0329C4 2.72368 6.53435 1.26402 8.59661 2.38548L21.4086 9.35258Z" fill="#ffffff"></path> </g></svg> -->

<!-- <svg fill="#ffffff" viewBox="-7 0 32 32" version="1.1" xmlns="http://www.w3.org/2000/svg"><g id="SVGRepo_bgCarrier" stroke-width="0"></g><g id="SVGRepo_tracerCarrier" stroke-linecap="round" stroke-linejoin="round"></g><g id="SVGRepo_iconCarrier"> <title>play</title> <path d="M0 6.688v18.906c0 0.344 0.156 0.625 0.469 0.813 0.125 0.094 0.344 0.125 0.5 0.125s0.281-0.031 0.438-0.125l16.375-9.438c0.313-0.219 0.5-0.5 0.5-0.844 0-0.313-0.188-0.594-0.5-0.813l-16.375-9.438c-0.563-0.406-1.406 0.094-1.406 0.813z"></path> </g></svg> -->

<svg viewBox="0 0 24 24" fill="none" xmlns="http://www.w3.org/2000/svg"><g id="SVGRepo_bgCarrier" stroke-width="0"></g><g id="SVGRepo_tracerCarrier" stroke-linecap="round" stroke-linejoin="round"></g><g id="SVGRepo_iconCarrier"><path d="M8.286 3.407A1.5 1.5 0 0 0 6 4.684v14.632a1.5 1.5 0 0 0 2.286 1.277l11.888-7.316a1.5 1.5 0 0 0 0-2.555L8.286 3.407z" fill="#ffffff"></path></g></svg>