<!DOCTYPE svg PUBLIC "-//W3C//DTD SVG 1.1//EN" "http://www.w3.org/Graphics/SVG/1.1/DTD/svg11.dtd">

<!-- <svg fill="#fde047" width="800px" height="800px" viewBox="0 0 32 32" version="1.1" xmlns="http://www.w3.org/2000/svg">
<g id="SVGRepo_bgCarrier" stroke-width="0"/>
<g id="SVGRepo_tracerCarrier" stroke-linecap="round" stroke-linejoin="round"/>
<g id="SVGRepo_iconCarrier"> <title>warning</title> <path d="M30.555 25.219l-12.519-21.436c-1.044-1.044-2.738-1.044-3.782 0l-12.52 21.436c-1.044 1.043-1.044 2.736 0 3.781h28.82c1.046-1.045 1.046-2.738 0.001-3.781zM14.992 11.478c0-0.829 0.672-1.5 1.5-1.5s1.5 0.671 1.5 1.5v7c0 0.828-0.672 1.5-1.5 1.5s-1.5-0.672-1.5-1.5v-7zM16.501 24.986c-0.828 0-1.5-0.67-1.5-1.5 0-0.828 0.672-1.5 1.5-1.5s1.5 0.672 1.5 1.5c0 0.83-0.672 1.5-1.5 1.5z"/> </g>
</svg> -->

<svg viewBox="0 0 512 512" version="1.1" xmlns="http://www.w3.org/2000/svg" xmlns:xlink="http://www.w3.org/1999/xlink" fill="#ffffff" stroke="#ffffff"><g id="SVGRepo_bgCarrier" stroke-width="0"></g><g id="SVGRepo_tracerCarrier" stroke-linecap="round" stroke-linejoin="round"></g><g id="SVGRepo_iconCarrier"> <title>warning-filled</title> <g id="Page-1" stroke="none" stroke-width="1" fill="none" fill-rule="evenodd"> <g id="add" fill="#ffffff" transform="translate(32.000000, 42.666667)"> <path d="M246.312928,5.62892705 C252.927596,9.40873724 258.409564,14.8907053 262.189374,21.5053731 L444.667042,340.84129 C456.358134,361.300701 449.250007,387.363834 428.790595,399.054926 C422.34376,402.738832 415.04715,404.676552 407.622001,404.676552 L42.6666667,404.676552 C19.1025173,404.676552 7.10542736e-15,385.574034 7.10542736e-15,362.009885 C7.10542736e-15,354.584736 1.93772021,347.288125 5.62162594,340.84129 L188.099293,21.5053731 C199.790385,1.04596203 225.853517,-6.06216498 246.312928,5.62892705 Z M224,272 C208.761905,272 197.333333,283.264 197.333333,298.282667 C197.333333,313.984 208.415584,325.248 224,325.248 C239.238095,325.248 250.666667,313.984 250.666667,298.624 C250.666667,283.264 239.238095,272 224,272 Z M245.333333,106.666667 L202.666667,106.666667 L202.666667,234.666667 L245.333333,234.666667 L245.333333,106.666667 Z" id="Combined-Shape"> </path> </g> </g> </g></svg>